<?xml version="1.0" standalone="no"?>
<!DOCTYPE svg PUBLIC "-//W3C//DTD SVG 20010904//EN"
 "http://www.w3.org/TR/2001/REC-SVG-20010904/DTD/svg10.dtd">
<svg version="1.0" xmlns="http://www.w3.org/2000/svg"
 width="1425.000000pt" height="1517.000000pt" viewBox="0 0 1425.000000 1517.000000"
 preserveAspectRatio="xMidYMid meet">

<g transform="translate(0.000000,1517.000000) scale(0.100000,-0.100000)"
fill="#ffcb0b" stroke="none">
<path d="M3255 14134 c-98 -12 -160 -30 -244 -71 -158 -76 -280 -217 -335
-388 -26 -81 -36 -215 -36 -475 0 -260 10 -394 36 -475 69 -214 240 -376 461
-437 73 -20 107 -22 496 -26 l419 -4 -6 -36 c-4 -21 -9 -173 -12 -339 -6 -277
1 -435 22 -519 l6 -23 -1034 -4 c-1156 -5 -1113 -2 -1263 -76 -183 -91 -308
-248 -353 -442 -25 -109 -25 -739 0 -848 46 -197 182 -364 365 -449 145 -67
100 -65 1338 -69 l1120 -4 0 -377 c0 -378 4 -430 40 -524 6 -15 -29 -17 -432
-21 -485 -5 -504 -7 -638 -72 -129 -63 -227 -162 -296 -300 -63 -127 -72 -196
-72 -565 0 -377 8 -436 78 -578 75 -151 216 -273 371 -322 109 -33 206 -40
591 -40 l375 0 -6 -24 c-34 -137 -32 -741 3 -864 l10 -32 -1182 0 c-1164 -1
-1443 -6 -1542 -30 -183 -45 -349 -178 -430 -345 -61 -125 -67 -167 -72 -502
-6 -335 4 -466 41 -570 69 -189 218 -335 405 -396 119 -40 246 -47 845 -47
489 0 528 -1 522 -17 -31 -80 -45 -359 -35 -673 8 -217 17 -266 71 -380 55
-116 177 -240 288 -293 142 -68 156 -70 642 -74 l437 -4 -7 -47 c-4 -26 -7
-204 -7 -397 0 -301 3 -359 18 -415 63 -236 240 -413 477 -477 62 -17 275 -18
3995 -18 3767 0 3933 1 3995 18 191 53 341 177 423 347 67 138 72 179 72 575
0 294 -2 351 -18 418 -47 199 -182 365 -366 449 -111 51 -171 59 -473 65 -153
3 -275 9 -272 14 14 23 24 416 14 603 -11 221 -21 273 -76 386 -52 106 -178
231 -287 283 -148 72 -124 70 -984 74 -425 2 -773 6 -773 8 0 2 7 30 16 62 13
46 18 123 21 365 5 282 -1 415 -23 520 l-6 27 608 4 c408 3 625 8 659 16 242
55 433 237 501 476 14 49 18 119 22 388 5 428 -9 532 -92 669 l-33 55 40 54
c101 138 126 244 134 564 6 262 -8 483 -36 574 l-19 61 369 0 c403 0 528 9
632 45 156 54 295 173 365 314 71 141 77 188 77 576 0 394 -5 437 -71 572 -98
203 -277 331 -507 362 -52 7 -449 11 -1170 11 l-1092 0 4 329 c3 301 -4 438
-25 519 l-6 22 708 0 c729 0 844 5 955 39 154 49 305 176 377 318 71 143 77
189 77 578 0 396 -5 437 -72 575 -81 168 -231 292 -418 346 -51 15 -122 18
-488 21 l-428 5 8 76 c14 134 9 719 -6 787 -54 245 -237 435 -483 502 -59 17
-283 18 -3678 19 -1988 1 -3628 -1 -3645 -2z m7293 -127 c149 -41 287 -149
351 -275 60 -118 65 -161 65 -527 1 -237 -3 -346 -12 -387 l-13 -58 -3017 0
c-1659 -1 -3089 -5 -3177 -9 -187 -11 -232 -20 -340 -72 -126 -60 -242 -170
-294 -278 l-16 -33 -425 5 c-258 3 -447 10 -480 17 -212 44 -385 224 -422 440
-17 102 -17 660 1 750 47 242 242 415 496 440 44 4 1687 7 3650 6 3339 -1
3574 -3 3633 -19z m1377 -1385 c209 -51 375 -223 416 -432 18 -89 18 -669 0
-760 -41 -211 -203 -376 -418 -427 -58 -14 -178 -17 -843 -20 l-775 -5 -42 65
c-24 36 -67 87 -96 113 -118 107 -239 157 -417 173 -78 8 -994 11 -2842 11
l-2727 0 -11 38 c-35 126 -39 704 -5 841 44 182 185 331 368 390 20 7 68 16
105 21 37 4 1680 7 3652 6 2772 -2 3596 -5 3635 -14z m-2055 -1425 c201 -68
338 -215 382 -412 14 -67 19 -698 5 -747 l-7 -28 -2573 0 c-1414 -1 -2644 -5
-2732 -9 -181 -10 -230 -20 -331 -66 -140 -64 -243 -163 -306 -295 l-33 -69
-1160 2 c-1094 2 -1163 3 -1215 21 -197 65 -333 212 -377 408 -24 106 -24 680
0 786 48 215 215 378 428 417 61 11 739 13 3969 12 3757 -2 3897 -3 3950 -20z
m2805 -1325 c209 -51 375 -223 416 -432 18 -89 18 -669 0 -760 -41 -211 -205
-378 -418 -426 -54 -13 -162 -17 -513 -21 l-445 -5 -42 55 c-23 31 -66 75 -95
98 -59 47 -186 110 -263 130 -41 11 -692 14 -3480 19 l-3430 5 -22 55 c-30 76
-43 221 -43 476 0 253 13 384 45 471 71 188 241 318 449 342 39 5 1808 8 3931
7 2989 -2 3871 -5 3910 -14z m-1498 -1462 c235 -21 394 -127 482 -321 43 -95
51 -175 51 -506 -1 -347 -9 -416 -65 -521 -56 -108 -60 -110 -126 -60 -66 50
-152 91 -239 115 -62 17 -226 18 -3280 18 -3089 0 -3218 -1 -3280 -18 -161
-46 -327 -170 -400 -299 l-32 -58 -361 0 c-375 0 -517 9 -602 36 -168 54 -297
190 -352 369 -16 54 -18 99 -18 420 0 313 2 368 18 424 40 144 137 267 264
333 82 43 130 57 237 67 117 12 7578 12 7703 1z m72 -1403 c203 -55 358 -214
403 -412 9 -44 13 -151 13 -400 0 -371 -4 -401 -62 -523 -38 -78 -150 -190
-232 -231 -123 -63 -134 -63 -812 -68 l-616 -5 -28 48 c-15 26 -55 75 -89 108
-121 122 -255 180 -453 196 -73 6 -1055 10 -2555 10 -2311 0 -2438 1 -2447 18
-21 41 -31 178 -31 452 0 343 7 405 61 518 84 176 237 279 445 301 44 5 1487
8 3209 7 2944 -1 3134 -3 3194 -19z m-1759 -1415 c78 -22 187 -82 237 -130
158 -152 190 -292 180 -767 -5 -239 -16 -335 -43 -387 l-14 -28 -3243 -2
c-3081 -3 -3245 -4 -3302 -21 -148 -44 -275 -128 -353 -233 l-47 -64 -613 0
c-388 0 -640 4 -685 11 -169 25 -329 142 -400 290 -50 103 -58 161 -64 434 -6
282 7 466 38 552 72 194 237 326 439 352 36 5 1811 8 3945 7 3103 -1 3889 -4
3925 -14z m2073 -1444 c200 -50 363 -212 409 -409 15 -62 19 -691 5 -771 l-8
-48 -3587 -3 c-3396 -2 -3590 -3 -3652 -20 -121 -33 -207 -84 -300 -177 -55
-54 -98 -107 -119 -147 l-32 -63 -362 0 c-401 0 -549 10 -635 42 -171 63 -304
215 -344 393 -19 86 -19 705 1 790 33 147 141 291 269 358 81 42 129 56 236
66 45 5 1874 8 4066 7 3688 -1 3990 -3 4053 -18z m1110 -1360 c222 -55 382
-223 419 -438 17 -103 17 -661 -1 -750 -41 -206 -188 -364 -398 -428 -55 -16
-284 -17 -3898 -20 -2570 -2 -3872 1 -3937 7 -121 13 -215 48 -296 109 -104
79 -174 187 -203 317 -19 81 -20 692 -1 780 17 85 71 191 128 254 100 111 225
167 402 181 53 4 1811 7 3907 6 3526 -2 3815 -3 3878 -18z"/>
<path d="M7440 13476 l0 -186 25 0 25 0 -2 183 c-3 180 -3 182 -25 185 l-23 3
0 -185z"/>
<path d="M8424 13645 c-4 -9 0 -23 9 -32 21 -21 49 -9 45 19 -4 28 -45 38 -54
13z"/>
<path d="M8583 13645 c-13 -9 -24 -31 -28 -55 -5 -30 -11 -40 -26 -40 -10 0
-19 -7 -19 -15 0 -8 9 -15 20 -15 19 0 20 -7 20 -115 l0 -115 25 0 25 0 0 115
0 115 30 0 c20 0 30 5 30 15 0 10 -10 15 -30 15 -23 0 -30 5 -30 19 0 35 12
51 36 51 17 0 24 6 24 20 0 25 -45 28 -77 5z"/>
<path d="M8704 13645 c-4 -9 0 -23 9 -32 21 -21 49 -9 45 19 -4 28 -45 38 -54
13z"/>
<path d="M9504 13645 c-4 -9 0 -23 9 -32 21 -21 49 -9 45 19 -4 28 -45 38 -54
13z"/>
<path d="M4220 13631 c-19 -10 -45 -36 -58 -57 -19 -33 -22 -51 -20 -116 3
-85 18 -115 78 -155 64 -44 174 -20 213 45 25 43 22 52 -18 52 -19 0 -35 -4
-35 -10 0 -24 -41 -50 -79 -50 -79 0 -119 102 -79 203 13 33 36 47 77 47 43 0
60 -9 77 -41 11 -22 22 -29 44 -29 36 0 39 18 10 65 -38 62 -139 84 -210 46z"/>
<path d="M4544 13631 c-56 -34 -68 -107 -24 -151 11 -11 45 -26 77 -35 32 -9
64 -19 72 -24 54 -29 25 -81 -45 -81 -33 0 -47 5 -62 25 -27 34 -72 35 -72 2
0 -44 67 -87 136 -87 84 0 137 48 132 121 -4 52 -29 73 -113 95 -68 18 -85 29
-85 54 0 46 88 62 120 22 16 -20 80 -33 80 -17 0 20 -35 67 -60 80 -41 21
-118 19 -156 -4z"/>
<path d="M5308 13633 c-63 -40 -76 -139 -25 -191 37 -36 108 -42 149 -12 l31
23 -7 -34 c-11 -58 -32 -79 -76 -79 -29 0 -43 5 -52 20 -17 26 -68 28 -68 2 0
-20 31 -52 67 -71 35 -18 87 -13 124 12 50 33 69 79 69 165 0 85 -22 137 -68
165 -38 22 -109 22 -144 0z m117 -58 c33 -32 32 -68 -1 -94 -33 -26 -55 -26
-85 -3 -45 38 -16 122 43 122 10 0 30 -11 43 -25z"/>
<path d="M5644 13640 c-30 -12 -64 -58 -64 -87 0 -15 13 -37 31 -54 17 -16 26
-29 20 -29 -26 0 -61 -49 -61 -86 0 -103 180 -141 254 -53 35 41 33 74 -7 114
l-33 33 23 20 c25 22 31 69 13 103 -23 41 -118 63 -176 39z m104 -56 c58 -41
-14 -108 -79 -74 -12 7 -19 21 -19 40 0 47 53 66 98 34z m15 -161 c25 -23 21
-48 -10 -73 -48 -38 -116 -11 -111 44 5 53 75 70 121 29z"/>
<path d="M3560 13465 l0 -175 115 0 115 0 0 30 0 30 -80 0 -80 0 0 45 0 45 75
0 75 0 0 30 0 30 -75 0 -75 0 0 45 0 45 80 0 c79 0 80 0 80 25 l0 25 -115 0
-115 0 0 -175z"/>
<path d="M3850 13465 l0 -175 115 0 115 0 0 30 0 30 -80 0 -80 0 0 45 0 45 75
0 75 0 0 30 0 30 -75 0 -75 0 0 45 0 45 80 0 c79 0 80 0 80 25 l0 25 -115 0
-115 0 0 -175z"/>
<path d="M4993 13521 c-40 -65 -73 -128 -73 -139 0 -20 6 -21 88 -24 l87 -3 3
-32 c3 -29 7 -33 33 -33 27 0 29 3 29 35 0 31 3 35 25 35 20 0 25 5 25 25 0
20 -5 25 -25 25 l-25 0 0 115 0 115 -47 0 -48 0 -72 -119z m104 -108 c-3 -2
-28 -3 -56 -1 l-52 3 53 88 53 88 3 -87 c2 -47 1 -88 -1 -91z"/>
<path d="M6020 13465 l0 -175 25 0 c24 0 25 2 25 75 l0 75 80 0 c73 0 80 2 80
20 0 18 -7 20 -80 20 l-80 0 0 60 0 60 85 0 c78 0 85 2 85 20 0 19 -7 20 -110
20 l-110 0 0 -175z"/>
<path d="M7660 13634 c0 -4 28 -83 62 -176 59 -160 63 -169 87 -166 22 3 31
20 88 173 34 94 63 171 63 173 0 1 -11 2 -24 2 -27 0 -24 6 -78 -150 -22 -63
-43 -119 -47 -123 -5 -5 -30 55 -57 132 -43 127 -50 141 -71 141 -13 0 -23 -3
-23 -6z"/>
<path d="M9360 13585 c0 -28 -4 -35 -20 -35 -11 0 -20 -7 -20 -15 0 -8 9 -15
20 -15 18 0 20 -7 20 -87 0 -114 12 -137 68 -141 37 -3 42 -1 42 17 0 15 -6
21 -24 21 -31 0 -36 15 -36 111 l0 79 30 0 c20 0 30 5 30 15 0 10 -10 15 -30
15 -28 0 -30 3 -30 35 0 31 -3 35 -25 35 -22 0 -25 -4 -25 -35z"/>
<path d="M6333 13540 c-42 -25 -56 -53 -56 -114 -1 -65 22 -109 69 -131 62
-29 133 -3 160 61 54 128 -62 252 -173 184z m112 -45 c20 -19 25 -34 25 -72 0
-66 -20 -93 -69 -93 -44 0 -68 21 -77 67 -18 92 62 157 121 98z"/>
<path d="M6646 13539 c-21 -17 -26 -18 -26 -5 0 9 -8 16 -20 16 -19 0 -20 -7
-20 -130 0 -123 1 -130 20 -130 18 0 20 7 20 83 0 104 13 131 63 135 32 3 37
7 37 28 0 31 -36 33 -74 3z"/>
<path d="M6826 13539 c-21 -17 -26 -18 -26 -5 0 9 -8 16 -20 16 -19 0 -20 -7
-20 -130 0 -123 1 -130 20 -130 19 0 20 7 20 90 0 83 2 93 25 115 27 28 37 30
66 15 17 -10 19 -22 19 -115 l0 -105 25 0 c25 0 25 0 25 95 0 82 3 98 20 115
22 22 42 25 71 10 17 -10 19 -22 19 -115 l0 -105 25 0 c25 0 25 0 25 100 0 54
-5 110 -11 123 -22 48 -89 61 -133 26 l-26 -20 -26 20 c-34 27 -64 27 -98 0z"/>
<path d="M7218 13545 c-15 -8 -32 -24 -38 -35 -16 -30 13 -37 46 -11 44 35
104 21 104 -23 0 -21 -7 -24 -67 -34 -100 -17 -132 -68 -79 -129 29 -34 92
-39 125 -9 19 17 21 17 21 3 0 -11 8 -17 25 -17 l25 0 0 104 c0 95 -2 107 -23
131 -28 34 -98 43 -139 20z m112 -158 c0 -42 -53 -73 -96 -57 -20 8 -25 16
-22 37 3 29 26 40 86 42 27 1 32 -2 32 -22z"/>
<path d="M8028 13544 c-87 -47 -80 -213 9 -251 49 -20 98 -9 137 30 31 32 31
32 8 35 -13 2 -32 -4 -41 -12 -29 -26 -86 -21 -110 10 -38 48 -30 54 74 54
l95 0 0 26 c0 92 -93 151 -172 108z m85 -35 c25 -14 37 -28 37 -46 0 -9 -21
-13 -70 -13 l-71 0 16 29 c21 41 49 50 88 30z"/>
<path d="M8316 13539 c-21 -17 -26 -18 -26 -5 0 9 -8 16 -20 16 -19 0 -20 -7
-20 -130 0 -123 1 -130 20 -130 18 0 20 7 20 83 0 104 13 131 63 135 32 3 37
7 37 28 0 31 -36 33 -74 3z"/>
<path d="M8863 13541 c-17 -11 -36 -28 -41 -38 -30 -59 -19 -148 24 -188 53
-49 147 -37 179 24 15 30 15 31 -7 31 -13 0 -29 -9 -36 -20 -16 -26 -82 -28
-105 -2 -40 44 -28 139 19 161 37 16 52 14 80 -14 25 -25 64 -34 64 -15 0 5
-13 24 -28 41 -37 41 -102 50 -149 20z"/>
<path d="M9118 13545 c-15 -8 -32 -24 -38 -35 -16 -30 13 -37 46 -11 44 35
104 21 104 -23 0 -21 -7 -24 -67 -34 -100 -17 -132 -68 -79 -129 29 -34 92
-39 125 -9 19 17 21 17 21 3 0 -11 8 -17 25 -17 l25 0 0 104 c0 95 -2 107 -23
131 -28 34 -98 43 -139 20z m112 -158 c0 -42 -53 -73 -96 -57 -20 8 -25 16
-22 37 3 29 26 40 86 42 27 1 32 -2 32 -22z"/>
<path d="M9663 13540 c-99 -60 -69 -233 43 -255 48 -9 104 20 126 65 63 126
-55 260 -169 190z m112 -45 c20 -19 25 -34 25 -72 0 -66 -20 -93 -69 -93 -44
0 -68 21 -77 67 -18 92 62 157 121 98z"/>
<path d="M9976 13539 c-21 -17 -26 -18 -26 -5 0 9 -8 16 -20 16 -19 0 -20 -7
-20 -130 0 -121 1 -130 19 -130 17 0 19 10 23 96 3 86 5 98 27 115 30 24 56
24 81 -1 17 -17 20 -33 20 -115 0 -95 0 -95 25 -95 25 0 25 1 25 90 0 57 -5
104 -15 125 -23 55 -91 72 -139 34z"/>
<path d="M8430 13420 c0 -123 1 -130 20 -130 19 0 20 7 20 130 0 123 -1 130
-20 130 -19 0 -20 -7 -20 -130z"/>
<path d="M8710 13420 c0 -123 1 -130 20 -130 19 0 20 7 20 130 0 123 -1 130
-20 130 -19 0 -20 -7 -20 -130z"/>
<path d="M9510 13420 c0 -123 1 -130 20 -130 19 0 20 7 20 130 0 123 -1 130
-20 130 -19 0 -20 -7 -20 -130z"/>
<path d="M7744 12005 c-4 -9 0 -23 9 -32 21 -21 49 -9 45 19 -4 28 -45 38 -54
13z"/>
<path d="M5120 11991 c-19 -10 -45 -36 -58 -57 -19 -33 -22 -51 -20 -116 3
-85 18 -115 78 -155 64 -44 174 -20 213 45 25 43 22 52 -18 52 -19 0 -35 -4
-35 -10 0 -24 -41 -50 -78 -50 -82 0 -120 96 -80 203 13 33 36 47 77 47 43 0
60 -9 77 -41 11 -22 22 -29 44 -29 36 0 39 18 10 65 -38 62 -139 84 -210 46z"/>
<path d="M5454 11991 c-56 -34 -68 -107 -24 -151 11 -11 45 -26 77 -35 32 -9
64 -19 72 -24 54 -29 25 -81 -45 -81 -33 0 -47 5 -62 25 -27 34 -72 35 -72 2
0 -44 67 -87 136 -87 84 0 137 48 132 121 -4 52 -29 73 -113 95 -68 18 -85 29
-85 54 0 46 88 62 120 22 16 -20 80 -33 80 -17 0 20 -35 67 -60 80 -41 21
-118 19 -156 -4z"/>
<path d="M6208 11993 c-63 -40 -76 -139 -25 -191 37 -36 108 -42 149 -12 l31
23 -7 -34 c-11 -58 -32 -79 -76 -79 -29 0 -43 5 -52 20 -17 26 -68 28 -68 2 0
-20 31 -52 67 -71 35 -18 87 -13 124 12 50 33 69 79 69 165 0 85 -22 137 -68
165 -38 22 -109 22 -144 0z m117 -58 c33 -32 32 -68 -1 -94 -33 -26 -55 -26
-85 -3 -45 38 -16 122 43 122 10 0 30 -11 43 -25z"/>
<path d="M8620 11991 c-20 -10 -44 -36 -58 -62 -20 -38 -23 -54 -19 -117 5
-81 20 -111 77 -149 62 -42 162 -23 200 39 25 41 25 48 0 48 -11 0 -33 -14
-48 -31 -21 -24 -35 -30 -68 -31 -23 0 -50 5 -61 10 -48 26 -68 136 -39 207
31 73 122 84 173 20 27 -33 63 -47 63 -25 0 25 -33 72 -63 90 -41 25 -111 26
-157 1z"/>
<path d="M4470 11825 l0 -175 115 0 115 0 0 30 0 30 -80 0 -80 0 0 45 0 45 75
0 75 0 0 30 0 30 -75 0 -75 0 0 45 0 45 80 0 c79 0 80 0 80 25 l0 25 -115 0
-115 0 0 -175z"/>
<path d="M4760 11825 l0 -175 115 0 115 0 0 30 0 30 -80 0 -80 0 0 45 0 45 75
0 75 0 0 30 0 30 -75 0 -75 0 0 45 0 45 80 0 c79 0 80 0 80 25 l0 25 -115 0
-115 0 0 -175z"/>
<path d="M5892 11881 c-40 -65 -72 -128 -72 -139 0 -20 6 -21 88 -24 l87 -3 3
-32 c3 -29 7 -33 33 -33 27 0 29 3 29 35 0 31 3 35 25 35 20 0 25 5 25 25 0
20 -5 25 -25 25 l-25 0 0 115 0 115 -48 0 -48 0 -72 -119z m105 -108 c-3 -2
-28 -3 -56 -1 l-52 3 53 88 53 88 3 -87 c2 -47 1 -88 -1 -91z"/>
<path d="M6460 11975 c0 -25 1 -25 90 -25 50 0 90 -3 90 -6 0 -3 -34 -70 -76
-150 l-76 -144 36 0 36 0 75 150 c41 82 75 161 75 175 l0 25 -125 0 -125 0 0
-25z"/>
<path d="M6880 11825 l0 -175 86 0 c146 0 196 41 202 165 4 83 -15 127 -67
162 -29 20 -47 23 -127 23 l-94 0 0 -175z m211 97 c24 -27 29 -41 29 -87 0
-29 -4 -65 -10 -79 -15 -39 -66 -66 -127 -66 l-53 0 0 136 0 136 66 -4 c60 -4
70 -7 95 -36z"/>
<path d="M9710 11945 c0 -28 -4 -35 -20 -35 -11 0 -20 -7 -20 -15 0 -8 9 -15
20 -15 18 0 20 -7 20 -87 0 -114 12 -137 68 -141 37 -3 42 -1 42 17 0 15 -6
21 -24 21 -31 0 -36 15 -36 111 l0 79 30 0 c20 0 30 5 30 15 0 10 -10 15 -30
15 -28 0 -30 3 -30 35 0 31 -3 35 -25 35 -22 0 -25 -4 -25 -35z"/>
<path d="M7278 11904 c-87 -47 -80 -213 9 -251 49 -20 98 -9 137 30 31 32 31
32 8 35 -13 2 -32 -4 -41 -12 -29 -26 -86 -21 -110 10 -38 48 -30 54 74 54
l95 0 0 26 c0 92 -93 151 -172 108z m85 -35 c25 -14 37 -28 37 -46 0 -9 -21
-13 -70 -13 l-71 0 16 29 c21 41 49 50 88 30z"/>
<path d="M7540 11907 c-38 -19 -57 -59 -42 -91 13 -28 32 -39 100 -56 52 -13
64 -36 33 -62 -30 -23 -52 -23 -84 2 -27 22 -57 26 -57 9 0 -42 67 -75 129
-63 32 7 81 54 81 79 0 27 -40 61 -91 75 -59 17 -80 40 -60 64 19 22 68 20 88
-4 18 -20 53 -28 53 -11 0 55 -88 89 -150 58z"/>
<path d="M7891 11894 c-62 -52 -62 -156 1 -209 26 -22 39 -26 71 -22 21 3 47
13 58 23 18 17 19 16 19 -18 0 -21 -7 -41 -18 -51 -23 -21 -82 -22 -108 -2
-48 36 -75 3 -28 -34 32 -25 111 -28 153 -6 41 21 51 61 51 206 l0 129 -25 0
c-16 0 -25 -6 -25 -16 0 -13 -5 -12 -26 5 -37 29 -85 27 -123 -5z m124 -39
c56 -55 14 -165 -58 -151 -68 13 -89 104 -37 156 27 27 66 25 95 -5z"/>
<path d="M8216 11899 c-21 -17 -26 -18 -26 -5 0 9 -8 16 -20 16 -19 0 -20 -7
-20 -130 0 -121 1 -130 19 -130 17 0 19 10 23 96 3 86 5 98 27 115 30 24 56
24 81 -1 17 -17 20 -33 20 -115 0 -95 0 -95 25 -95 25 0 25 1 25 90 0 57 -5
104 -15 125 -23 55 -91 72 -139 34z"/>
<path d="M8938 11905 c-15 -8 -32 -24 -38 -35 -16 -30 13 -37 46 -11 44 35
104 21 104 -23 0 -21 -7 -24 -67 -34 -100 -17 -132 -68 -79 -129 29 -34 92
-39 125 -9 19 17 21 17 21 3 0 -11 8 -17 25 -17 l25 0 0 104 c0 95 -2 107 -23
131 -28 34 -98 43 -139 20z m112 -158 c0 -42 -53 -73 -96 -57 -20 8 -25 16
-22 37 3 29 26 40 86 42 27 1 32 -2 32 -22z"/>
<path d="M9233 11900 c-27 -16 -33 -17 -33 -5 0 8 -9 15 -20 15 -19 0 -20 -7
-20 -175 0 -168 1 -175 20 -175 18 0 20 7 20 65 l0 66 21 -20 c95 -88 215 41
164 174 -27 72 -89 94 -152 55z m94 -46 c22 -22 25 -32 21 -79 -6 -67 -20 -85
-68 -85 -52 0 -73 27 -74 91 -1 44 3 54 27 75 36 31 62 30 94 -2z"/>
<path d="M9490 11907 c-38 -19 -57 -59 -42 -91 13 -28 32 -39 100 -56 52 -13
64 -36 33 -62 -30 -23 -52 -23 -84 2 -27 22 -57 26 -57 9 0 -42 67 -75 129
-63 32 7 81 54 81 79 0 27 -40 61 -91 75 -59 17 -80 40 -60 64 19 22 68 20 88
-4 33 -38 70 -18 40 21 -29 38 -90 50 -137 26z"/>
<path d="M9903 11900 c-42 -25 -56 -53 -56 -114 -1 -65 22 -109 69 -131 62
-29 133 -3 160 61 54 128 -62 252 -173 184z m112 -45 c20 -19 25 -34 25 -72 0
-66 -20 -93 -69 -93 -44 0 -68 21 -77 67 -18 92 62 157 121 98z"/>
<path d="M10216 11899 c-21 -17 -26 -18 -26 -5 0 9 -8 16 -20 16 -19 0 -20 -7
-20 -130 0 -121 1 -130 19 -130 17 0 19 10 23 96 3 86 5 98 27 115 30 24 56
24 81 -1 17 -17 20 -33 20 -115 0 -95 0 -95 25 -95 25 0 25 1 25 90 0 57 -5
104 -15 125 -23 55 -91 72 -139 34z"/>
<path d="M10468 11904 c-87 -47 -80 -213 9 -251 49 -20 98 -9 137 30 31 32 31
32 8 35 -13 2 -32 -4 -41 -12 -29 -26 -86 -21 -110 10 -38 48 -30 54 74 54
l95 0 0 26 c0 92 -93 151 -172 108z m85 -35 c25 -14 37 -28 37 -46 0 -9 -21
-13 -70 -13 l-71 0 16 29 c21 41 49 50 88 30z"/>
<path d="M7750 11780 c0 -123 1 -130 20 -130 19 0 20 7 20 130 0 123 -1 130
-20 130 -19 0 -20 -7 -20 -130z"/>
<path d="M4934 10585 c-4 -9 0 -23 9 -32 21 -21 49 -9 45 19 -4 28 -45 38 -54
13z"/>
<path d="M5093 10585 c-13 -9 -24 -31 -28 -55 -5 -30 -11 -40 -26 -40 -10 0
-19 -7 -19 -15 0 -8 9 -15 20 -15 19 0 20 -7 20 -115 l0 -115 25 0 25 0 0 115
0 115 30 0 c20 0 30 5 30 15 0 10 -10 15 -30 15 -23 0 -30 5 -30 19 0 35 12
51 36 51 17 0 24 6 24 20 0 25 -45 28 -77 5z"/>
<path d="M5214 10585 c-4 -9 0 -23 9 -32 21 -21 49 -9 45 19 -4 28 -45 38 -54
13z"/>
<path d="M5584 10585 c-4 -9 0 -23 9 -32 21 -21 49 -9 45 19 -4 28 -45 38 -54
13z"/>
<path d="M5970 10416 l0 -186 25 0 25 0 -2 183 c-3 180 -3 182 -25 185 l-23 3
0 -185z"/>
<path d="M7040 10416 l0 -186 25 0 25 0 -2 183 c-3 180 -3 182 -25 185 l-23 3
0 -185z"/>
<path d="M7160 10416 l0 -186 25 0 25 0 -2 183 c-3 180 -3 182 -25 185 l-23 3
0 -185z"/>
<path d="M7264 10585 c-4 -9 0 -23 9 -32 21 -21 49 -9 45 19 -4 28 -45 38 -54
13z"/>
<path d="M2480 10571 c-19 -10 -45 -36 -58 -57 -19 -33 -22 -51 -20 -116 3
-85 18 -115 78 -155 64 -44 174 -20 213 45 25 43 22 52 -18 52 -19 0 -35 -4
-35 -10 0 -24 -41 -50 -78 -50 -82 0 -120 96 -80 203 13 33 36 47 77 47 43 0
60 -9 77 -41 11 -22 22 -29 44 -29 36 0 39 18 10 65 -38 62 -139 84 -210 46z"/>
<path d="M2814 10571 c-56 -34 -68 -107 -24 -151 11 -11 45 -26 77 -35 32 -9
64 -19 72 -24 54 -29 25 -81 -45 -81 -33 0 -47 5 -62 25 -27 34 -72 35 -72 2
0 -44 67 -87 136 -87 84 0 137 48 132 121 -4 52 -29 73 -113 95 -68 18 -85 29
-85 54 0 46 88 62 120 22 16 -20 80 -33 80 -17 0 20 -35 67 -60 80 -41 21
-118 19 -156 -4z"/>
<path d="M3578 10573 c-63 -40 -76 -139 -25 -191 37 -36 108 -42 149 -12 l31
23 -7 -34 c-11 -58 -32 -79 -76 -79 -29 0 -43 5 -52 20 -17 26 -68 28 -68 2 0
-20 31 -52 67 -71 35 -18 87 -13 124 12 50 33 69 79 69 165 0 85 -22 137 -68
165 -38 22 -109 22 -144 0z m117 -58 c33 -32 32 -68 -1 -94 -33 -26 -55 -26
-85 -3 -45 38 -16 122 43 122 10 0 30 -11 43 -25z"/>
<path d="M3898 10574 c-26 -14 -58 -60 -58 -84 0 -5 14 -10 30 -10 23 0 33 6
39 24 23 58 111 40 111 -22 0 -14 -35 -60 -90 -121 -49 -54 -90 -106 -90 -115
0 -14 17 -16 125 -16 l125 0 0 25 c0 24 -2 25 -75 25 -41 0 -75 4 -75 8 0 4
27 34 61 67 97 95 111 157 47 210 -35 29 -105 34 -150 9z"/>
<path d="M4389 10583 c-11 -3 -37 -61 -78 -171 -33 -92 -61 -170 -61 -174 0
-5 10 -8 23 -8 19 0 26 9 38 48 l15 47 71 3 71 3 17 -51 c14 -42 20 -50 42
-50 16 0 23 5 20 13 -2 6 -30 82 -61 167 -32 85 -63 160 -69 166 -7 6 -19 9
-28 7z m36 -133 c10 -30 20 -61 23 -67 3 -9 -10 -13 -47 -13 -28 0 -51 3 -51
7 0 21 45 142 51 136 3 -5 15 -33 24 -63z"/>
<path d="M1830 10405 l0 -175 115 0 115 0 0 30 0 30 -80 0 -80 0 0 45 0 45 75
0 75 0 0 30 0 30 -75 0 -75 0 0 45 0 45 80 0 c79 0 80 0 80 25 l0 25 -115 0
-115 0 0 -175z"/>
<path d="M2120 10405 l0 -175 115 0 115 0 0 30 0 30 -80 0 -80 0 0 45 0 45 75
0 75 0 0 30 0 30 -75 0 -75 0 0 45 0 45 80 0 c79 0 80 0 80 25 l0 25 -115 0
-115 0 0 -175z"/>
<path d="M3253 10461 c-40 -65 -73 -128 -73 -139 0 -20 6 -21 88 -24 l87 -3 3
-32 c3 -29 7 -33 33 -33 27 0 29 3 29 35 0 31 3 35 25 35 20 0 25 5 25 25 0
20 -5 25 -25 25 l-25 0 0 115 0 115 -47 0 -48 0 -72 -119z m104 -108 c-3 -2
-28 -3 -56 -1 l-52 3 53 88 53 88 3 -87 c2 -47 1 -88 -1 -91z"/>
<path d="M6210 10405 l0 -175 25 0 25 0 0 175 0 175 -25 0 -25 0 0 -175z"/>
<path d="M4780 10525 c0 -28 -4 -35 -20 -35 -11 0 -20 -7 -20 -15 0 -8 9 -15
20 -15 18 0 20 -7 20 -87 0 -114 12 -137 68 -141 37 -3 42 -1 42 17 0 15 -6
21 -24 21 -31 0 -36 15 -36 111 l0 79 30 0 c20 0 30 5 30 15 0 10 -10 15 -30
15 -28 0 -30 3 -30 35 0 31 -3 35 -25 35 -22 0 -25 -4 -25 -35z"/>
<path d="M6620 10525 c0 -28 -4 -35 -20 -35 -11 0 -20 -7 -20 -15 0 -8 9 -15
20 -15 18 0 20 -7 20 -87 0 -114 12 -137 68 -141 37 -3 42 -1 42 17 0 15 -6
21 -24 21 -31 0 -36 15 -36 111 l0 79 30 0 c20 0 30 5 30 15 0 10 -10 15 -30
15 -28 0 -30 3 -30 35 0 31 -3 35 -25 35 -22 0 -25 -4 -25 -35z"/>
<path d="M4656 10479 c-21 -17 -26 -18 -26 -5 0 9 -8 16 -20 16 -19 0 -20 -7
-20 -130 0 -123 1 -130 20 -130 18 0 20 7 20 83 0 104 13 131 63 135 32 3 37
7 37 28 0 31 -36 33 -74 3z"/>
<path d="M5373 10481 c-17 -11 -36 -28 -41 -38 -30 -59 -19 -148 24 -188 53
-49 147 -37 179 24 15 30 15 31 -7 31 -13 0 -29 -9 -36 -20 -16 -26 -82 -28
-105 -2 -40 44 -28 139 19 161 37 16 52 14 80 -14 25 -25 64 -34 64 -15 0 5
-13 24 -28 41 -37 41 -102 50 -149 20z"/>
<path d="M5748 10485 c-15 -8 -32 -24 -38 -35 -16 -30 13 -37 46 -11 44 35
104 21 104 -23 0 -21 -7 -24 -67 -34 -100 -17 -132 -68 -79 -129 29 -34 92
-39 125 -9 19 17 21 17 21 3 0 -11 8 -17 25 -17 l25 0 0 104 c0 95 -2 107 -23
131 -28 34 -98 43 -139 20z m112 -158 c0 -42 -53 -73 -96 -57 -20 8 -25 16
-22 37 3 29 26 40 86 42 27 1 32 -2 32 -22z"/>
<path d="M6396 10479 c-21 -17 -26 -18 -26 -5 0 9 -8 16 -20 16 -19 0 -20 -7
-20 -130 0 -121 1 -130 19 -130 17 0 19 10 23 96 3 86 5 98 27 115 30 24 56
24 81 -1 17 -17 20 -33 20 -115 0 -95 0 -95 25 -95 25 0 25 1 25 90 0 57 -5
104 -15 125 -23 55 -91 72 -139 34z"/>
<path d="M6818 10484 c-87 -47 -80 -213 9 -251 49 -20 98 -9 137 30 31 32 31
32 8 35 -13 2 -32 -4 -41 -12 -29 -26 -86 -21 -110 10 -38 48 -30 54 74 54
l95 0 0 26 c0 92 -93 151 -172 108z m85 -35 c25 -14 37 -28 37 -46 0 -9 -21
-13 -70 -13 l-71 0 16 29 c21 41 49 50 88 30z"/>
<path d="M7411 10474 c-62 -52 -62 -156 1 -209 26 -22 39 -26 71 -22 21 3 47
13 58 23 18 17 19 16 19 -18 0 -21 -7 -41 -18 -51 -23 -21 -82 -22 -108 -2
-48 36 -75 3 -28 -34 32 -25 111 -28 153 -6 41 21 51 61 51 206 l0 129 -25 0
c-16 0 -25 -6 -25 -16 0 -13 -5 -12 -26 5 -37 29 -85 27 -123 -5z m124 -39
c56 -55 14 -165 -58 -151 -68 13 -89 104 -37 156 27 27 66 25 95 -5z"/>
<path d="M7718 10484 c-87 -47 -80 -213 9 -251 49 -20 98 -9 137 30 31 32 31
32 8 35 -13 2 -32 -4 -41 -12 -29 -26 -86 -21 -110 10 -38 48 -30 54 74 54
l95 0 0 26 c0 92 -93 151 -172 108z m85 -35 c25 -14 37 -28 37 -46 0 -9 -21
-13 -70 -13 l-71 0 16 29 c21 41 49 50 88 30z"/>
<path d="M8006 10479 c-21 -17 -26 -18 -26 -5 0 9 -8 16 -20 16 -19 0 -20 -7
-20 -130 0 -121 1 -130 19 -130 17 0 19 10 23 96 3 86 5 98 27 115 30 24 56
24 81 -1 17 -17 20 -33 20 -115 0 -95 0 -95 25 -95 25 0 25 1 24 88 0 48 -5
103 -12 122 -20 58 -91 78 -141 39z"/>
<path d="M8263 10481 c-17 -11 -36 -28 -41 -38 -30 -59 -19 -148 24 -188 53
-49 147 -37 179 24 15 30 15 31 -7 31 -13 0 -29 -9 -36 -20 -16 -26 -82 -28
-105 -2 -40 44 -28 139 19 161 37 16 52 14 80 -14 25 -25 64 -34 64 -15 0 5
-13 24 -28 41 -37 41 -102 50 -149 20z"/>
<path d="M8538 10484 c-87 -47 -80 -213 9 -251 49 -20 98 -9 137 30 31 32 31
32 8 35 -13 2 -32 -4 -41 -12 -29 -26 -86 -21 -110 10 -38 48 -30 54 74 54
l95 0 0 26 c0 92 -93 151 -172 108z m85 -35 c25 -14 37 -28 37 -46 0 -9 -21
-13 -70 -13 l-71 0 16 29 c21 41 49 50 88 30z"/>
<path d="M4940 10360 c0 -123 1 -130 20 -130 19 0 20 7 20 130 0 123 -1 130
-20 130 -19 0 -20 -7 -20 -130z"/>
<path d="M5220 10360 c0 -123 1 -130 20 -130 19 0 20 7 20 130 0 123 -1 130
-20 130 -19 0 -20 -7 -20 -130z"/>
<path d="M5590 10360 c0 -123 1 -130 20 -130 19 0 20 7 20 130 0 123 -1 130
-20 130 -19 0 -20 -7 -20 -130z"/>
<path d="M7270 10360 c0 -123 1 -130 20 -130 19 0 20 7 20 130 0 123 -1 130
-20 130 -19 0 -20 -7 -20 -130z"/>
<path d="M7384 9255 c-4 -9 0 -23 8 -31 20 -20 50 -7 46 20 -4 26 -45 35 -54
11z"/>
<path d="M8084 9255 c-4 -9 0 -23 9 -32 21 -21 49 -9 45 19 -4 28 -45 38 -54
13z"/>
<path d="M8200 9086 l0 -186 25 0 c17 0 25 6 25 17 0 15 2 15 18 0 47 -42 127
-23 156 38 34 70 12 171 -43 199 -38 20 -64 20 -101 1 l-29 -15 -3 62 c-3 57
-5 63 -25 66 l-23 3 0 -185z m165 19 c20 -19 25 -34 25 -72 0 -66 -20 -93 -70
-93 -50 0 -70 27 -70 93 0 38 5 53 25 72 13 14 34 25 45 25 12 0 32 -11 45
-25z"/>
<path d="M9390 9199 l0 -70 -26 20 c-85 67 -196 -39 -164 -157 14 -53 35 -79
75 -92 31 -10 41 -9 75 8 31 15 40 16 40 6 0 -8 10 -14 25 -14 l25 0 0 185 0
185 -25 0 c-24 0 -25 -2 -25 -71z m-45 -75 c38 -15 58 -101 34 -147 -16 -30
-28 -37 -65 -37 -98 0 -95 184 3 189 6 1 19 -2 28 -5z"/>
<path d="M5320 9241 c-19 -10 -45 -36 -58 -57 -19 -33 -22 -51 -20 -116 3 -85
18 -115 78 -155 64 -44 174 -20 213 45 25 43 22 52 -18 52 -19 0 -35 -4 -35
-10 0 -24 -41 -50 -78 -50 -82 0 -120 96 -80 203 13 33 36 47 77 47 43 0 60
-9 77 -41 11 -22 22 -29 44 -29 36 0 39 18 10 65 -38 62 -139 84 -210 46z"/>
<path d="M5644 9241 c-56 -34 -68 -107 -24 -151 11 -11 45 -26 77 -35 32 -9
64 -19 72 -24 54 -29 25 -81 -45 -81 -33 0 -47 5 -62 25 -27 34 -72 35 -72 2
0 -44 67 -87 136 -87 84 0 137 48 132 121 -4 52 -29 73 -113 95 -68 18 -85 29
-85 54 0 46 88 62 120 22 16 -20 80 -33 80 -17 0 20 -35 67 -60 80 -41 21
-118 19 -156 -4z"/>
<path d="M6408 9243 c-63 -40 -76 -139 -25 -191 37 -36 108 -42 149 -12 l31
23 -7 -34 c-11 -58 -32 -79 -76 -79 -29 0 -43 5 -52 20 -17 26 -68 28 -68 2 0
-20 31 -52 67 -71 35 -18 87 -13 124 12 50 33 69 79 69 165 0 85 -22 137 -68
165 -38 22 -109 22 -144 0z m117 -58 c33 -32 32 -68 -1 -94 -33 -26 -55 -26
-85 -3 -45 38 -16 122 43 122 10 0 30 -11 43 -25z"/>
<path d="M9674 9241 c-45 -27 -59 -74 -37 -120 15 -31 27 -39 78 -54 113 -35
123 -43 111 -92 -12 -48 -131 -52 -156 -5 -13 24 -50 27 -50 4 0 -26 54 -72
93 -79 90 -17 167 30 167 102 0 53 -31 80 -117 104 -95 26 -116 59 -66 99 36
28 89 21 118 -15 37 -45 72 -25 45 26 -26 48 -129 65 -186 30z"/>
<path d="M4670 9075 l0 -175 115 0 115 0 0 30 0 30 -80 0 -80 0 0 45 0 45 75
0 75 0 0 30 0 30 -75 0 -75 0 0 45 0 45 80 0 c79 0 80 0 80 25 l0 25 -115 0
-115 0 0 -175z"/>
<path d="M4960 9075 l0 -175 115 0 115 0 0 30 0 30 -80 0 -80 0 0 45 0 45 75
0 75 0 0 30 0 30 -75 0 -75 0 0 45 0 45 80 0 c79 0 80 0 80 25 l0 25 -115 0
-115 0 0 -175z"/>
<path d="M6092 9131 c-40 -65 -72 -128 -72 -139 0 -20 6 -21 88 -24 l87 -3 3
-32 c3 -29 7 -33 33 -33 27 0 29 3 29 35 0 31 3 35 25 35 20 0 25 5 25 25 0
20 -5 25 -25 25 l-25 0 0 115 0 115 -48 0 -48 0 -72 -119z m105 -108 c-3 -2
-28 -3 -56 -1 l-52 3 53 88 53 88 3 -87 c2 -47 1 -88 -1 -91z"/>
<path d="M6713 9219 c-34 -24 -43 -36 -43 -60 0 -33 3 -33 58 8 l32 24 0 -145
0 -146 35 0 35 0 0 175 0 175 -37 0 c-26 -1 -52 -11 -80 -31z"/>
<path d="M7040 9075 l0 -175 86 0 c146 0 196 41 202 165 4 83 -15 127 -67 162
-29 20 -47 23 -127 23 l-94 0 0 -175z m211 97 c25 -28 29 -41 29 -90 0 -31 -6
-68 -13 -82 -17 -34 -72 -60 -129 -60 l-48 0 0 136 0 136 66 -4 c60 -4 70 -7
95 -36z"/>
<path d="M7750 9195 c0 -28 -4 -35 -20 -35 -11 0 -20 -7 -20 -15 0 -8 9 -15
20 -15 18 0 20 -7 20 -87 0 -114 12 -137 68 -141 37 -3 42 -1 42 17 0 15 -6
21 -24 21 -31 0 -36 15 -36 111 l0 79 30 0 c20 0 30 5 30 15 0 10 -10 15 -30
15 -28 0 -30 3 -30 35 0 31 -3 35 -25 35 -22 0 -25 -4 -25 -35z"/>
<path d="M8780 9195 c0 -28 -4 -35 -20 -35 -11 0 -20 -7 -20 -15 0 -8 9 -15
20 -15 18 0 20 -7 20 -87 0 -114 12 -137 68 -141 37 -3 42 -1 42 17 0 15 -6
21 -24 21 -31 0 -36 15 -36 111 l0 79 30 0 c20 0 30 5 30 15 0 10 -10 15 -30
15 -28 0 -30 3 -30 35 0 31 -3 35 -25 35 -22 0 -25 -4 -25 -35z"/>
<path d="M10440 9195 c0 -28 -4 -35 -20 -35 -11 0 -20 -7 -20 -15 0 -8 9 -15
20 -15 18 0 20 -7 20 -87 0 -114 12 -137 68 -141 37 -3 42 -1 42 17 0 15 -6
21 -24 21 -31 0 -36 15 -36 111 l0 79 30 0 c20 0 30 5 30 15 0 10 -10 15 -30
15 -28 0 -30 3 -30 35 0 31 -3 35 -25 35 -22 0 -25 -4 -25 -35z"/>
<path d="M7540 9157 c-38 -19 -57 -59 -42 -91 13 -28 32 -39 100 -56 52 -13
64 -36 33 -62 -30 -23 -52 -23 -84 2 -27 22 -57 26 -57 9 0 -42 67 -75 129
-63 32 7 81 54 81 79 0 27 -40 61 -91 75 -59 17 -80 40 -60 64 19 22 68 20 88
-4 29 -34 70 -20 45 16 -28 40 -94 55 -142 31z"/>
<path d="M7976 9149 c-21 -17 -26 -18 -26 -5 0 9 -8 16 -20 16 -19 0 -20 -7
-20 -130 0 -123 1 -130 20 -130 18 0 20 7 20 83 0 104 13 131 63 135 32 3 37
7 37 28 0 31 -36 33 -74 3z"/>
<path d="M8988 9154 c-87 -47 -80 -213 9 -251 49 -20 98 -9 137 30 31 32 31
32 8 35 -13 2 -32 -4 -41 -12 -29 -26 -86 -21 -110 10 -38 48 -30 54 74 54
l95 0 0 26 c0 92 -93 151 -172 108z m85 -35 c25 -14 37 -28 37 -46 0 -9 -21
-13 -70 -13 l-71 0 16 29 c21 41 49 50 88 30z"/>
<path d="M10220 9157 c-38 -19 -57 -59 -42 -91 13 -28 32 -39 100 -56 52 -13
64 -36 33 -62 -30 -23 -52 -23 -84 2 -27 22 -57 26 -57 9 0 -42 67 -75 129
-63 32 7 81 54 81 79 0 27 -40 61 -91 75 -59 17 -80 40 -60 64 19 22 68 20 88
-4 29 -34 70 -20 45 16 -28 40 -94 55 -142 31z"/>
<path d="M10638 9154 c-87 -47 -80 -213 9 -251 49 -20 98 -9 137 30 31 32 31
32 8 35 -13 2 -32 -4 -41 -12 -29 -26 -86 -21 -110 10 -38 48 -30 54 74 54
l95 0 0 26 c0 92 -93 151 -172 108z m85 -35 c25 -14 37 -28 37 -46 0 -9 -21
-13 -70 -13 l-71 0 16 29 c21 41 49 50 88 30z"/>
<path d="M10936 9149 c-21 -17 -26 -18 -26 -5 0 9 -8 16 -20 16 -19 0 -20 -7
-20 -130 0 -123 1 -130 20 -130 19 0 20 7 20 90 0 83 2 93 25 115 27 28 37 30
66 15 17 -10 19 -22 19 -115 l0 -105 25 0 c25 0 25 0 25 95 0 82 3 98 20 115
22 22 42 25 71 10 17 -10 19 -22 19 -115 l0 -105 25 0 c25 0 25 0 25 100 0 54
-5 110 -11 123 -22 48 -89 61 -133 26 l-26 -20 -26 20 c-15 12 -37 21 -49 21
-12 0 -34 -9 -49 -21z"/>
<path d="M11330 9157 c-38 -19 -57 -59 -42 -91 13 -28 32 -39 100 -56 52 -13
64 -36 33 -62 -30 -23 -52 -23 -84 2 -48 38 -81 13 -36 -28 25 -24 68 -34 109
-25 31 6 80 54 80 78 0 27 -40 61 -91 75 -59 17 -80 40 -60 64 19 22 68 20 88
-4 29 -34 70 -20 45 16 -28 40 -94 55 -142 31z"/>
<path d="M7390 9030 c0 -123 1 -130 20 -130 19 0 20 7 20 130 0 123 -1 130
-20 130 -19 0 -20 -7 -20 -130z"/>
<path d="M8090 9030 c0 -123 1 -130 20 -130 19 0 20 7 20 130 0 123 -1 130
-20 130 -19 0 -20 -7 -20 -130z"/>
<path d="M8480 9078 c0 -118 13 -156 57 -175 39 -16 78 -11 106 14 15 15 17
15 17 0 0 -10 8 -17 20 -17 19 0 20 7 20 130 0 123 -1 130 -20 130 -18 0 -20
-7 -20 -82 0 -106 -13 -132 -65 -136 -56 -5 -65 12 -65 125 0 93 0 93 -25 93
-25 0 -25 -1 -25 -82z"/>
<path d="M9910 9153 c0 -4 21 -63 46 -131 38 -104 44 -129 35 -148 -7 -16 -19
-24 -36 -24 -18 0 -25 -5 -25 -20 0 -26 49 -28 78 -2 18 14 132 296 132 323 0
5 -10 9 -23 9 -20 0 -27 -12 -58 -106 l-34 -106 -35 106 c-30 94 -37 106 -57
106 -13 0 -23 -3 -23 -7z"/>
<path d="M9710 7606 l0 -186 25 0 c24 0 25 3 25 54 0 30 4 58 10 61 5 3 31
-21 56 -55 39 -49 52 -60 77 -60 l29 0 -38 48 c-21 26 -48 60 -61 76 l-24 28
58 54 58 53 -30 1 c-24 0 -42 -11 -80 -50 l-50 -51 -5 103 c-5 97 -6 103 -27
106 l-23 3 0 -185z"/>
<path d="M3930 7761 c-19 -10 -45 -36 -58 -57 -19 -33 -22 -51 -20 -116 3 -85
18 -115 78 -155 64 -44 174 -20 213 45 25 43 22 52 -18 52 -19 0 -35 -4 -35
-10 0 -24 -41 -50 -79 -50 -79 0 -119 102 -79 203 13 33 36 47 77 47 43 0 60
-9 77 -41 11 -22 22 -29 44 -29 36 0 39 18 10 65 -38 62 -139 84 -210 46z"/>
<path d="M4254 7761 c-56 -34 -68 -107 -24 -151 11 -11 45 -26 77 -35 32 -9
64 -19 72 -24 54 -29 25 -81 -45 -81 -33 0 -47 5 -62 25 -27 34 -72 35 -72 2
0 -44 67 -87 136 -87 84 0 137 48 132 121 -4 52 -29 73 -113 95 -68 18 -85 29
-85 54 0 46 88 62 120 22 16 -20 80 -33 80 -17 0 20 -35 67 -60 80 -41 21
-118 19 -156 -4z"/>
<path d="M5034 7770 c-30 -12 -64 -58 -64 -87 0 -15 13 -37 31 -54 17 -16 26
-29 20 -29 -26 0 -61 -49 -61 -86 0 -103 180 -141 254 -53 35 41 33 74 -7 114
l-33 33 23 20 c25 22 31 69 13 103 -23 41 -118 63 -176 39z m104 -56 c58 -41
-14 -108 -79 -74 -12 7 -19 21 -19 40 0 47 53 66 98 34z m15 -161 c25 -23 21
-48 -10 -73 -48 -38 -116 -11 -111 44 5 53 75 70 121 29z"/>
<path d="M5338 7763 c-63 -40 -76 -139 -25 -191 37 -36 108 -42 149 -12 l31
23 -7 -34 c-11 -58 -32 -79 -76 -79 -29 0 -43 5 -52 20 -17 26 -68 28 -68 2 0
-20 31 -52 67 -71 35 -18 87 -13 124 12 50 33 69 79 69 165 0 85 -22 137 -68
165 -38 22 -109 22 -144 0z m117 -58 c33 -32 32 -68 -1 -94 -33 -26 -55 -26
-85 -3 -45 38 -16 122 43 122 10 0 30 -11 43 -25z"/>
<path d="M5800 7761 c-20 -10 -44 -36 -58 -62 -20 -38 -23 -54 -19 -117 5 -81
20 -111 77 -149 62 -42 162 -23 200 39 25 41 25 48 0 48 -11 0 -33 -14 -48
-31 -21 -24 -35 -30 -68 -31 -23 0 -50 5 -61 10 -48 26 -68 136 -39 207 31 73
122 84 173 20 27 -33 63 -47 63 -25 0 25 -33 72 -63 90 -41 25 -111 26 -157 1z"/>
<path d="M3270 7595 l0 -175 115 0 115 0 0 30 0 30 -80 0 -80 0 0 45 0 45 75
0 75 0 0 30 0 30 -75 0 -75 0 0 45 0 45 80 0 c79 0 80 0 80 25 l0 25 -115 0
-115 0 0 -175z"/>
<path d="M3570 7595 l0 -175 115 0 115 0 0 30 0 30 -80 0 -80 0 0 45 0 45 75
0 75 0 0 30 0 30 -75 0 -75 0 0 45 0 45 80 0 c79 0 80 0 80 25 l0 25 -115 0
-115 0 0 -175z"/>
<path d="M4702 7651 c-40 -65 -72 -128 -72 -139 0 -20 6 -21 88 -24 l87 -3 3
-32 c3 -29 7 -33 33 -33 27 0 29 3 29 35 0 31 3 35 25 35 20 0 25 5 25 25 0
20 -5 25 -25 25 l-25 0 0 115 0 115 -48 0 -48 0 -72 -119z m105 -108 c-3 -2
-28 -3 -56 -1 l-52 3 53 88 53 88 3 -87 c2 -47 1 -88 -1 -91z"/>
<path d="M8090 7596 l0 -176 25 0 25 0 0 137 0 136 96 -136 c78 -113 99 -137
120 -137 l24 0 0 175 0 175 -25 0 -24 0 -3 -132 -3 -133 -90 130 c-74 107 -95
131 -118 133 l-27 3 0 -175z"/>
<path d="M7360 7715 c0 -28 -4 -35 -20 -35 -11 0 -20 -7 -20 -15 0 -8 9 -15
20 -15 18 0 20 -7 20 -87 0 -114 12 -137 68 -141 37 -3 42 -1 42 17 0 15 -6
21 -24 21 -31 0 -36 15 -36 111 l0 79 30 0 c20 0 30 5 30 15 0 10 -10 15 -30
15 -28 0 -30 3 -30 35 0 31 -3 35 -25 35 -22 0 -25 -4 -25 -35z"/>
<path d="M8730 7715 c0 -28 -4 -35 -20 -35 -11 0 -20 -7 -20 -15 0 -8 9 -15
20 -15 18 0 20 -7 20 -87 0 -114 12 -137 68 -141 37 -3 42 -1 42 17 0 15 -6
21 -24 21 -31 0 -36 15 -36 111 l0 79 30 0 c20 0 30 5 30 15 0 10 -10 15 -30
15 -28 0 -30 3 -30 35 0 31 -3 35 -25 35 -22 0 -25 -4 -25 -35z"/>
<path d="M6123 7670 c-99 -60 -69 -233 43 -255 48 -9 104 20 126 65 63 126
-55 260 -169 190z m112 -45 c20 -19 25 -34 25 -72 0 -66 -20 -93 -69 -93 -44
0 -68 21 -77 67 -18 92 62 157 121 98z"/>
<path d="M6426 7669 c-21 -17 -26 -18 -26 -5 0 9 -8 16 -20 16 -19 0 -20 -7
-20 -130 0 -123 1 -130 20 -130 19 0 20 7 20 90 0 83 2 93 25 115 27 28 37 30
66 15 17 -10 19 -22 19 -115 l0 -105 25 0 c25 0 25 0 25 95 0 82 3 98 20 115
22 22 42 25 71 10 17 -10 19 -22 19 -115 l0 -105 25 0 c25 0 25 0 25 100 0 54
-5 110 -11 123 -22 48 -89 61 -133 26 l-26 -20 -26 20 c-15 12 -37 21 -49 21
-12 0 -34 -9 -49 -21z"/>
<path d="M6853 7670 c-27 -16 -33 -17 -33 -5 0 8 -9 15 -20 15 -19 0 -20 -7
-20 -175 0 -168 1 -175 20 -175 18 0 20 7 20 65 l0 66 21 -20 c95 -88 215 41
164 174 -27 72 -89 94 -152 55z m94 -46 c22 -22 25 -32 21 -79 -6 -67 -20 -85
-68 -85 -52 0 -75 28 -75 92 0 42 4 53 28 74 36 31 62 30 94 -2z"/>
<path d="M7568 7674 c-87 -47 -80 -213 9 -251 49 -20 98 -9 137 30 31 32 31
32 8 35 -13 2 -32 -4 -41 -12 -29 -26 -86 -21 -110 10 -38 48 -30 54 74 54
l95 0 0 26 c0 92 -93 151 -172 108z m85 -35 c25 -14 37 -28 37 -46 0 -9 -21
-13 -70 -13 l-71 0 16 29 c21 41 49 50 88 30z"/>
<path d="M7856 7669 c-21 -17 -26 -18 -26 -5 0 9 -8 16 -20 16 -19 0 -20 -7
-20 -130 0 -123 1 -130 20 -130 18 0 20 7 20 83 0 104 13 131 63 135 32 3 37
7 37 28 0 31 -36 33 -74 3z"/>
<path d="M8498 7674 c-87 -47 -80 -213 9 -251 49 -20 98 -9 137 30 31 32 31
32 8 35 -13 2 -32 -4 -41 -12 -29 -26 -86 -21 -110 10 -38 48 -30 54 74 54
l95 0 0 26 c0 92 -93 151 -172 108z m85 -35 c25 -14 37 -28 37 -46 0 -9 -21
-13 -70 -13 l-71 0 16 29 c21 41 49 50 88 30z"/>
<path d="M9293 7670 c-99 -60 -69 -233 43 -255 48 -9 104 20 126 65 63 126
-55 260 -169 190z m112 -45 c20 -19 25 -34 25 -72 0 -66 -20 -93 -69 -93 -44
0 -68 21 -77 67 -18 92 62 157 121 98z"/>
<path d="M9606 7669 c-21 -17 -26 -18 -26 -5 0 9 -8 16 -20 16 -19 0 -20 -7
-20 -130 0 -123 1 -130 20 -130 18 0 20 7 20 83 0 104 13 131 63 135 32 3 37
7 37 28 0 31 -36 33 -74 3z"/>
<path d="M10000 7677 c-38 -19 -57 -59 -42 -91 13 -28 32 -39 100 -56 52 -13
64 -36 33 -62 -30 -23 -52 -23 -84 2 -27 22 -57 26 -57 9 0 -42 67 -75 129
-63 32 7 81 54 81 79 0 27 -40 61 -91 75 -59 17 -80 40 -60 64 19 22 68 20 88
-4 18 -20 53 -28 53 -11 0 55 -88 89 -150 58z"/>
<path d="M7060 7598 c0 -118 13 -156 57 -175 39 -16 78 -11 106 14 15 15 17
15 17 0 0 -10 8 -17 20 -17 19 0 20 7 20 130 0 123 -1 130 -20 130 -18 0 -20
-7 -20 -82 0 -106 -13 -132 -65 -136 -56 -5 -65 12 -65 125 0 93 0 93 -25 93
-25 0 -25 -1 -25 -82z"/>
<path d="M8870 7668 c0 -7 16 -65 34 -128 30 -103 36 -115 57 -118 22 -3 26 3
48 85 13 48 27 92 31 96 4 4 12 -9 18 -30 6 -21 18 -64 27 -95 14 -50 20 -58
40 -58 20 0 26 7 35 43 10 35 29 104 56 200 4 13 -1 17 -19 17 -22 0 -25 -8
-47 -100 -13 -56 -27 -95 -30 -88 -4 7 -17 52 -30 101 -20 78 -25 87 -46 87
-20 0 -26 -9 -40 -57 -9 -32 -22 -78 -29 -103 l-12 -45 -12 45 c-7 25 -14 52
-16 60 -24 95 -26 100 -45 100 -11 0 -20 -6 -20 -12z"/>
<path d="M7830 6226 l0 -186 25 0 c17 0 25 6 25 17 0 15 2 15 18 0 47 -42 127
-23 156 38 34 70 12 171 -43 199 -38 20 -64 20 -101 1 l-29 -15 -3 62 c-3 57
-5 63 -25 66 l-23 3 0 -185z m165 19 c20 -19 25 -34 25 -72 0 -66 -20 -93 -70
-93 -50 0 -70 27 -70 93 0 38 5 53 25 72 13 14 34 25 45 25 12 0 32 -11 45
-25z"/>
<path d="M5320 6381 c-19 -10 -45 -36 -58 -57 -19 -33 -22 -51 -20 -116 3 -85
18 -115 78 -155 64 -44 174 -20 213 45 25 43 22 52 -18 52 -19 0 -35 -4 -35
-10 0 -24 -41 -50 -78 -50 -82 0 -120 96 -80 203 13 33 36 47 77 47 43 0 60
-9 77 -41 11 -22 22 -29 44 -29 36 0 39 18 10 65 -38 62 -139 84 -210 46z"/>
<path d="M5644 6381 c-56 -34 -68 -107 -24 -151 11 -11 45 -26 77 -35 32 -9
64 -19 72 -24 54 -29 25 -81 -45 -81 -33 0 -47 5 -62 25 -27 34 -72 35 -72 2
0 -44 67 -87 136 -87 84 0 137 48 132 121 -4 52 -29 73 -113 95 -68 18 -85 29
-85 54 0 46 88 62 120 22 16 -20 80 -33 80 -17 0 20 -35 67 -60 80 -41 21
-118 19 -156 -4z"/>
<path d="M6424 6390 c-30 -12 -64 -58 -64 -87 0 -15 13 -37 31 -54 17 -16 26
-29 20 -29 -26 0 -61 -49 -61 -86 0 -103 180 -141 254 -53 35 41 33 74 -7 114
l-33 33 23 20 c25 22 31 69 13 103 -23 41 -118 63 -176 39z m104 -56 c58 -41
-14 -108 -79 -74 -12 7 -19 21 -19 40 0 47 53 66 98 34z m15 -161 c25 -23 21
-48 -10 -73 -48 -38 -116 -11 -111 44 5 53 75 70 121 29z"/>
<path d="M8294 6381 c-45 -27 -59 -74 -37 -120 15 -31 27 -39 78 -54 113 -35
123 -43 111 -92 -12 -48 -131 -52 -156 -5 -13 24 -50 27 -50 4 0 -26 54 -72
93 -79 90 -17 167 30 167 102 0 53 -31 80 -117 104 -94 26 -116 59 -67 98 39
30 80 27 114 -9 44 -48 79 -33 50 21 -26 48 -129 65 -186 30z"/>
<path d="M4660 6215 l0 -175 115 0 115 0 0 30 0 30 -80 0 -80 0 0 45 0 45 75
0 75 0 0 30 0 30 -75 0 -75 0 0 45 0 45 80 0 c79 0 80 0 80 25 l0 25 -115 0
-115 0 0 -175z"/>
<path d="M4950 6215 l0 -175 115 0 115 0 0 30 0 30 -80 0 -80 0 0 45 0 45 75
0 75 0 0 30 0 30 -75 0 -75 0 0 45 0 45 80 0 c79 0 80 0 80 25 l0 25 -115 0
-115 0 0 -175z"/>
<path d="M6092 6271 c-40 -65 -72 -128 -72 -139 0 -20 6 -21 88 -24 l87 -3 3
-32 c3 -29 7 -33 33 -33 27 0 29 3 29 35 0 31 3 35 25 35 20 0 25 5 25 25 0
20 -5 25 -25 25 l-25 0 0 115 0 115 -48 0 -48 0 -72 -119z m105 -108 c-3 -2
-28 -3 -56 -1 l-52 3 53 88 53 88 3 -87 c2 -47 1 -88 -1 -91z"/>
<path d="M6696 6338 c-3 -29 -7 -75 -8 -103 -3 -47 -1 -50 23 -53 15 -2 32 5
44 18 23 26 69 26 95 0 43 -43 14 -110 -48 -110 -29 0 -62 21 -62 41 0 5 -13
9 -30 9 -35 0 -40 -21 -14 -58 49 -71 184 -66 224 8 16 30 16 95 0 125 -28 52
-111 72 -160 38 -22 -16 -23 -16 -17 1 4 10 7 33 7 51 l0 34 83 3 c76 3 82 5
85 26 3 22 2 22 -107 22 l-110 0 -5 -52z"/>
<path d="M7093 6377 c3 -7 24 -86 48 -176 42 -156 44 -162 68 -159 22 3 27 15
58 123 19 66 38 124 42 128 4 4 18 -27 30 -70 12 -43 29 -102 37 -130 13 -45
19 -53 40 -53 13 0 24 2 24 5 0 3 20 78 45 168 25 90 45 167 45 171 0 3 -11 6
-24 6 -23 0 -26 -8 -58 -142 l-34 -143 -39 143 c-37 139 -39 143 -64 140 -24
-3 -28 -12 -63 -133 -20 -71 -37 -132 -38 -135 -1 -3 -12 40 -26 95 -45 183
-42 175 -70 175 -18 0 -24 -4 -21 -13z"/>
<path d="M9060 6335 c0 -28 -4 -35 -20 -35 -11 0 -20 -7 -20 -15 0 -8 9 -15
20 -15 18 0 20 -7 20 -87 0 -114 12 -137 68 -141 37 -3 42 -1 42 17 0 15 -6
21 -24 21 -31 0 -36 15 -36 111 l0 79 30 0 c20 0 30 5 30 15 0 10 -10 15 -30
15 -28 0 -30 3 -30 35 0 31 -3 35 -25 35 -22 0 -25 -4 -25 -35z"/>
<path d="M7608 6294 c-87 -47 -80 -213 9 -251 49 -20 98 -9 137 30 31 32 31
32 8 35 -13 2 -32 -4 -41 -12 -29 -26 -86 -21 -110 10 -38 48 -30 54 74 54
l95 0 0 26 c0 92 -93 151 -172 108z m85 -35 c25 -14 37 -28 37 -46 0 -9 -21
-13 -70 -13 l-71 0 16 29 c21 41 49 50 88 30z"/>
<path d="M8850 6297 c-38 -19 -57 -59 -42 -91 13 -28 32 -39 100 -56 52 -13
64 -36 33 -62 -30 -23 -52 -23 -84 2 -48 38 -81 13 -36 -28 25 -24 68 -34 109
-25 31 6 80 54 80 78 0 27 -40 61 -91 75 -59 17 -80 40 -60 64 19 22 68 20 88
-4 29 -34 70 -20 45 16 -28 40 -94 55 -142 31z"/>
<path d="M9268 6294 c-87 -47 -80 -213 9 -251 49 -20 98 -9 137 30 31 32 31
32 8 35 -13 2 -32 -4 -41 -12 -29 -26 -86 -21 -110 10 -38 48 -30 54 74 54
l95 0 0 26 c0 92 -93 151 -172 108z m85 -35 c25 -14 37 -28 37 -46 0 -9 -21
-13 -70 -13 l-71 0 16 29 c21 41 49 50 88 30z"/>
<path d="M9556 6289 c-21 -17 -26 -18 -26 -5 0 9 -8 16 -20 16 -19 0 -20 -7
-20 -130 0 -123 1 -130 20 -130 19 0 20 7 20 90 0 83 2 93 25 115 27 28 37 30
66 15 17 -10 19 -22 19 -115 l0 -105 25 0 c25 0 25 0 25 95 0 82 3 98 20 115
22 22 42 25 71 10 17 -10 19 -22 19 -115 l0 -105 25 0 c25 0 25 0 25 100 0 54
-5 110 -11 123 -22 48 -89 61 -133 26 l-26 -20 -26 20 c-15 12 -37 21 -49 21
-12 0 -34 -9 -49 -21z"/>
<path d="M9950 6297 c-38 -19 -57 -59 -42 -91 13 -28 32 -39 100 -56 52 -13
64 -36 33 -62 -30 -23 -52 -23 -84 2 -27 22 -57 26 -57 9 0 -42 67 -75 129
-63 32 7 81 54 81 79 0 27 -40 61 -91 75 -59 17 -80 40 -60 64 19 22 68 20 88
-4 29 -34 70 -20 45 16 -28 40 -94 55 -142 31z"/>
<path d="M8540 6293 c0 -4 21 -63 46 -131 38 -104 44 -129 35 -148 -7 -16 -19
-24 -36 -24 -18 0 -25 -5 -25 -20 0 -26 49 -28 78 -2 18 14 132 296 132 323 0
5 -10 9 -23 9 -20 0 -27 -12 -58 -106 l-34 -106 -35 106 c-30 94 -37 106 -57
106 -13 0 -23 -3 -23 -7z"/>
<path d="M5444 4975 c-4 -9 0 -23 9 -32 21 -21 49 -9 45 19 -4 28 -45 38 -54
13z"/>
<path d="M2120 4961 c-19 -10 -45 -36 -58 -57 -19 -33 -22 -51 -20 -116 3 -85
18 -115 78 -155 64 -44 174 -20 213 45 25 43 22 52 -18 52 -19 0 -35 -4 -35
-10 0 -24 -41 -50 -79 -50 -79 0 -119 102 -79 203 13 33 36 47 77 47 43 0 60
-9 77 -41 11 -22 22 -29 44 -29 36 0 39 18 10 65 -38 62 -139 84 -210 46z"/>
<path d="M2454 4961 c-56 -34 -68 -107 -24 -151 11 -11 45 -26 77 -35 32 -9
64 -19 72 -24 54 -29 25 -81 -45 -81 -33 0 -47 5 -62 25 -24 30 -72 35 -72 7
0 -69 117 -114 205 -78 46 20 67 55 63 107 -4 52 -29 73 -113 95 -68 18 -85
29 -85 54 0 46 88 62 120 22 16 -20 80 -33 80 -17 0 20 -35 67 -60 80 -41 21
-118 19 -156 -4z"/>
<path d="M3224 4970 c-30 -12 -64 -58 -64 -87 0 -15 13 -37 31 -54 17 -16 26
-29 20 -29 -26 0 -61 -49 -61 -86 0 -103 180 -141 254 -53 35 41 33 74 -7 114
l-33 33 23 20 c25 22 31 69 13 103 -23 41 -118 63 -176 39z m104 -56 c58 -41
-14 -108 -79 -74 -12 7 -19 21 -19 40 0 47 53 66 98 34z m15 -161 c25 -23 21
-48 -10 -73 -48 -38 -116 -11 -111 44 5 53 75 70 121 29z"/>
<path d="M3538 4964 c-26 -14 -58 -60 -58 -84 0 -5 14 -10 30 -10 23 0 33 6
39 24 23 58 111 40 111 -22 0 -14 -35 -60 -90 -121 -49 -54 -90 -106 -90 -115
0 -14 17 -16 125 -16 l125 0 0 25 c0 24 -2 25 -75 25 -41 0 -75 4 -75 8 0 4
27 34 61 67 97 95 111 157 47 210 -35 29 -105 34 -150 9z"/>
<path d="M3980 4958 c-56 -38 -72 -69 -77 -145 -4 -57 -1 -75 19 -112 30 -58
65 -83 125 -88 106 -11 176 62 177 183 0 114 -61 184 -159 184 -38 0 -61 -6
-85 -22z m161 -56 c64 -71 36 -218 -45 -240 -47 -13 -80 -5 -112 29 -35 37
-45 124 -20 182 29 71 125 86 177 29z"/>
<path d="M6304 4961 c-45 -27 -59 -74 -37 -120 15 -31 27 -39 78 -54 113 -35
123 -43 111 -92 -12 -48 -131 -52 -156 -5 -13 24 -50 27 -50 4 0 -26 54 -72
93 -79 90 -17 167 30 167 102 0 53 -31 80 -117 104 -94 26 -116 59 -67 98 39
30 80 27 114 -9 44 -48 79 -33 50 21 -26 48 -129 65 -186 30z"/>
<path d="M1470 4795 l0 -175 115 0 115 0 0 30 0 30 -80 0 -80 0 0 45 0 45 75
0 75 0 0 30 0 30 -75 0 -75 0 0 45 0 45 80 0 c79 0 80 0 80 25 l0 25 -115 0
-115 0 0 -175z"/>
<path d="M1760 4795 l0 -175 115 0 115 0 0 30 0 30 -80 0 -80 0 0 45 0 45 75
0 75 0 0 30 0 30 -75 0 -75 0 0 45 0 45 80 0 c79 0 80 0 80 25 l0 25 -115 0
-115 0 0 -175z"/>
<path d="M2892 4851 c-40 -65 -72 -128 -72 -139 0 -20 6 -21 88 -24 l87 -3 3
-32 c3 -29 7 -33 33 -33 27 0 29 3 29 35 0 31 3 35 25 35 20 0 25 5 25 25 0
20 -5 25 -25 25 l-25 0 0 115 0 115 -48 0 -48 0 -72 -119z m105 -108 c-3 -2
-28 -3 -56 -1 l-52 3 53 88 53 88 3 -87 c2 -47 1 -88 -1 -91z"/>
<path d="M5290 4915 c0 -28 -4 -35 -20 -35 -11 0 -20 -7 -20 -15 0 -8 9 -15
20 -15 18 0 20 -7 20 -87 0 -114 12 -137 68 -141 37 -3 42 -1 42 17 0 15 -6
21 -24 21 -31 0 -36 15 -36 111 l0 79 30 0 c20 0 30 5 30 15 0 10 -10 15 -30
15 -28 0 -30 3 -30 35 0 31 -3 35 -25 35 -22 0 -25 -4 -25 -35z"/>
<path d="M7070 4915 c0 -28 -4 -35 -20 -35 -11 0 -20 -7 -20 -15 0 -8 9 -15
20 -15 18 0 20 -7 20 -87 0 -114 12 -137 68 -141 37 -3 42 -1 42 17 0 15 -6
21 -24 21 -31 0 -36 15 -36 111 l0 79 30 0 c20 0 30 5 30 15 0 10 -10 15 -30
15 -28 0 -30 3 -30 35 0 31 -3 35 -25 35 -22 0 -25 -4 -25 -35z"/>
<path d="M4353 4870 c-27 -16 -33 -17 -33 -5 0 8 -9 15 -20 15 -19 0 -20 -7
-20 -175 0 -168 1 -175 20 -175 18 0 20 7 20 65 l0 66 21 -20 c95 -88 215 41
164 174 -27 72 -89 94 -152 55z m94 -46 c22 -22 25 -32 21 -79 -6 -67 -20 -85
-68 -85 -52 0 -73 27 -74 91 -1 44 3 54 27 75 36 31 62 30 94 -2z"/>
<path d="M4618 4874 c-87 -47 -80 -213 9 -251 49 -20 98 -9 137 30 31 32 31
32 8 35 -13 2 -32 -4 -41 -12 -29 -26 -86 -21 -110 10 -38 48 -30 54 74 54
l95 0 0 26 c0 92 -93 151 -172 108z m85 -35 c25 -14 37 -28 37 -46 0 -9 -21
-13 -70 -13 l-71 0 16 29 c21 41 49 50 88 30z"/>
<path d="M4916 4869 c-21 -17 -26 -18 -26 -5 0 9 -8 16 -20 16 -19 0 -20 -7
-20 -130 0 -123 1 -130 20 -130 18 0 20 7 20 83 0 104 13 131 63 135 32 3 37
7 37 28 0 31 -36 33 -74 3z"/>
<path d="M5058 4875 c-15 -8 -32 -24 -38 -35 -16 -30 13 -37 46 -11 44 35 104
21 104 -23 0 -21 -7 -24 -67 -34 -100 -17 -132 -68 -79 -129 29 -34 92 -39
125 -9 19 17 21 17 21 3 0 -11 8 -17 25 -17 l25 0 0 104 c0 95 -2 107 -23 131
-28 34 -98 43 -139 20z m112 -158 c0 -42 -53 -73 -96 -57 -20 8 -25 16 -22 37
3 29 26 40 86 42 27 1 32 -2 32 -22z"/>
<path d="M5626 4869 c-21 -17 -26 -18 -26 -5 0 9 -8 16 -20 16 -19 0 -20 -7
-20 -130 0 -121 1 -130 19 -130 17 0 19 10 23 96 3 86 5 98 27 115 30 24 56
24 81 -1 17 -17 20 -33 20 -115 0 -95 0 -95 25 -95 25 0 25 1 24 88 0 48 -5
103 -12 122 -20 58 -91 78 -141 39z"/>
<path d="M5871 4864 c-62 -52 -62 -156 1 -209 26 -22 39 -26 71 -22 21 3 47
13 58 23 18 17 19 16 19 -18 0 -21 -7 -41 -18 -51 -23 -21 -82 -22 -108 -2
-48 36 -75 3 -28 -34 32 -25 111 -28 153 -6 41 21 51 61 51 206 l0 129 -25 0
c-16 0 -25 -6 -25 -16 0 -13 -5 -12 -26 5 -37 29 -85 27 -123 -5z m124 -39
c56 -55 14 -165 -58 -151 -68 13 -89 104 -37 156 27 27 66 25 95 -5z"/>
<path d="M6860 4877 c-38 -19 -57 -59 -42 -91 13 -28 32 -39 100 -56 52 -13
64 -36 33 -62 -30 -23 -52 -23 -84 2 -27 22 -57 26 -57 9 0 -42 67 -75 129
-63 32 7 81 54 81 79 0 27 -40 61 -91 75 -59 17 -80 40 -60 64 19 22 68 20 88
-4 29 -34 70 -20 45 16 -28 40 -94 55 -142 31z"/>
<path d="M7278 4874 c-87 -47 -80 -213 9 -251 49 -20 98 -9 137 30 31 32 31
32 8 35 -13 2 -32 -4 -41 -12 -29 -26 -86 -21 -110 10 -38 48 -30 54 74 54
l95 0 0 26 c0 92 -93 151 -172 108z m85 -35 c25 -14 37 -28 37 -46 0 -9 -21
-13 -70 -13 l-71 0 16 29 c21 41 49 50 88 30z"/>
<path d="M7566 4869 c-21 -17 -26 -18 -26 -5 0 9 -8 16 -20 16 -19 0 -20 -7
-20 -130 0 -123 1 -130 20 -130 18 0 20 7 20 79 0 44 4 91 10 105 13 35 50 52
79 37 19 -11 21 -20 21 -116 l0 -105 25 0 c25 0 25 0 25 95 0 82 3 98 20 115
22 22 42 25 71 10 17 -10 19 -22 19 -115 l0 -105 25 0 c25 0 25 0 25 100 0 54
-5 110 -11 123 -22 48 -89 61 -133 26 l-26 -20 -26 20 c-15 12 -37 21 -49 21
-12 0 -34 -9 -49 -21z"/>
<path d="M7960 4877 c-38 -19 -57 -59 -42 -91 13 -28 32 -39 100 -56 52 -13
64 -36 33 -62 -30 -23 -52 -23 -84 2 -27 22 -57 26 -57 9 0 -42 67 -75 129
-63 32 7 81 54 81 79 0 27 -40 61 -91 75 -59 17 -80 40 -60 64 19 22 68 20 88
-4 29 -34 70 -20 45 16 -28 40 -94 55 -142 31z"/>
<path d="M5450 4750 c0 -123 1 -130 20 -130 19 0 20 7 20 130 0 123 -1 130
-20 130 -19 0 -20 -7 -20 -130z"/>
<path d="M6540 4873 c0 -4 21 -63 46 -131 38 -104 44 -129 35 -148 -7 -16 -19
-24 -36 -24 -18 0 -25 -5 -25 -20 0 -26 49 -28 78 -2 18 14 132 296 132 323 0
5 -10 9 -23 9 -20 0 -27 -12 -58 -106 l-34 -106 -35 106 c-30 94 -37 106 -57
106 -13 0 -23 -3 -23 -7z"/>
<path d="M6253 3525 c-13 -9 -24 -31 -28 -55 -5 -30 -11 -40 -26 -40 -10 0
-19 -7 -19 -15 0 -8 9 -15 20 -15 19 0 20 -7 20 -115 l0 -115 25 0 25 0 0 115
0 115 30 0 c20 0 30 5 30 15 0 10 -10 15 -30 15 -23 0 -30 5 -30 19 0 35 12
51 36 51 17 0 24 6 24 20 0 25 -45 28 -77 5z"/>
<path d="M8584 3525 c-4 -9 0 -23 9 -32 21 -21 49 -9 45 19 -4 28 -45 38 -54
13z"/>
<path d="M9694 3525 c-4 -9 0 -23 9 -32 21 -21 49 -9 45 19 -4 28 -45 38 -54
13z"/>
<path d="M3900 3511 c-19 -10 -45 -36 -58 -57 -19 -33 -22 -51 -20 -116 3 -85
18 -115 78 -155 64 -44 174 -20 213 45 25 43 22 52 -18 52 -19 0 -35 -4 -35
-10 0 -24 -41 -50 -79 -50 -79 0 -119 102 -79 203 13 33 36 47 77 47 43 0 60
-9 77 -41 11 -22 22 -29 44 -29 36 0 39 18 10 65 -38 62 -139 84 -210 46z"/>
<path d="M4224 3511 c-56 -34 -68 -107 -24 -151 11 -11 45 -26 77 -35 32 -9
64 -19 72 -24 54 -29 25 -81 -45 -81 -33 0 -47 5 -62 25 -27 34 -72 35 -72 2
0 -44 67 -87 136 -87 84 0 137 48 132 121 -4 52 -29 73 -113 95 -68 18 -85 29
-85 54 0 46 88 62 120 22 16 -20 80 -33 80 -17 0 20 -35 67 -60 80 -41 21
-118 19 -156 -4z"/>
<path d="M5004 3520 c-30 -12 -64 -58 -64 -87 0 -15 13 -37 31 -54 17 -16 26
-29 20 -29 -26 0 -61 -49 -61 -86 0 -103 180 -141 254 -53 35 41 33 74 -7 114
l-33 33 23 20 c25 22 31 69 13 103 -23 41 -118 63 -176 39z m104 -56 c58 -41
-14 -108 -79 -74 -12 7 -19 21 -19 40 0 47 53 66 98 34z m15 -161 c25 -23 21
-48 -10 -73 -48 -38 -116 -11 -111 44 5 53 75 70 121 29z"/>
<path d="M5664 3511 c-45 -27 -59 -74 -37 -120 15 -31 27 -39 78 -54 113 -35
123 -43 111 -92 -12 -48 -131 -52 -156 -5 -13 24 -50 27 -50 4 0 -26 54 -72
93 -79 90 -17 167 30 167 102 0 53 -31 80 -117 104 -94 26 -116 59 -67 98 39
30 80 27 114 -9 44 -48 79 -33 50 21 -26 48 -129 65 -186 30z"/>
<path d="M3240 3345 l0 -175 115 0 115 0 0 30 0 30 -80 0 -80 0 0 45 0 45 75
0 75 0 0 30 0 30 -75 0 -75 0 0 45 0 45 80 0 c79 0 80 0 80 25 l0 25 -115 0
-115 0 0 -175z"/>
<path d="M3540 3345 l0 -175 115 0 115 0 0 30 0 30 -80 0 -80 0 0 45 0 45 75
0 75 0 0 30 0 30 -75 0 -75 0 0 45 0 45 80 0 c79 0 80 0 80 25 l0 25 -115 0
-115 0 0 -175z"/>
<path d="M4672 3401 c-40 -65 -72 -128 -72 -139 0 -20 6 -21 88 -24 l87 -3 3
-32 c3 -29 7 -33 33 -33 27 0 29 3 29 35 0 31 3 35 25 35 20 0 25 5 25 25 0
20 -5 25 -25 25 l-25 0 0 115 0 115 -48 0 -48 0 -72 -119z m105 -108 c-3 -2
-28 -3 -56 -1 l-52 3 53 88 53 88 3 -87 c2 -47 1 -88 -1 -91z"/>
<path d="M5303 3489 c-34 -24 -43 -36 -43 -60 0 -33 3 -33 58 8 l32 24 0 -145
0 -146 35 0 35 0 0 175 0 175 -37 0 c-26 -1 -52 -11 -80 -31z"/>
<path d="M7740 3345 l0 -175 110 0 c103 0 110 1 110 20 0 18 -7 20 -85 20
l-85 0 0 60 0 60 85 0 c78 0 85 2 85 20 0 18 -7 20 -85 20 l-85 0 0 55 0 55
85 0 c78 0 85 2 85 20 0 19 -7 20 -110 20 l-110 0 0 -175z"/>
<path d="M6380 3465 c0 -28 -4 -35 -20 -35 -11 0 -20 -7 -20 -15 0 -8 9 -15
20 -15 18 0 20 -7 20 -87 0 -114 12 -137 68 -141 37 -3 42 -1 42 17 0 15 -6
21 -24 21 -31 0 -36 15 -36 111 l0 79 30 0 c20 0 30 5 30 15 0 10 -10 15 -30
15 -28 0 -30 3 -30 35 0 31 -3 35 -25 35 -22 0 -25 -4 -25 -35z"/>
<path d="M5973 3420 c-99 -60 -69 -233 43 -255 48 -9 104 20 126 65 63 126
-55 260 -169 190z m112 -45 c20 -19 25 -34 25 -72 0 -66 -20 -93 -69 -93 -44
0 -68 21 -77 67 -18 92 62 157 121 98z"/>
<path d="M6948 3425 c-15 -8 -32 -24 -38 -35 -16 -30 13 -37 46 -11 44 35 104
21 104 -23 0 -21 -7 -24 -67 -34 -100 -17 -132 -68 -79 -129 29 -34 92 -39
125 -9 19 17 21 17 21 3 0 -11 8 -17 25 -17 l25 0 0 104 c0 95 -2 107 -23 131
-28 34 -98 43 -139 20z m112 -158 c0 -42 -53 -73 -96 -57 -20 8 -25 16 -22 37
3 29 26 40 86 42 27 1 32 -2 32 -22z"/>
<path d="M7236 3419 c-21 -17 -26 -18 -26 -5 0 9 -8 16 -20 16 -19 0 -20 -7
-20 -130 0 -123 1 -130 20 -130 18 0 20 7 20 83 0 104 13 131 63 135 32 3 37
7 37 28 0 31 -36 33 -74 3z"/>
<path d="M7388 3424 c-87 -47 -80 -213 9 -251 49 -20 98 -9 137 30 31 32 31
32 8 35 -13 2 -32 -4 -41 -12 -29 -26 -86 -21 -110 10 -38 48 -30 54 74 54
l95 0 0 26 c0 92 -93 151 -172 108z m85 -35 c25 -14 37 -28 37 -46 0 -9 -21
-13 -70 -13 l-71 0 16 29 c21 41 49 50 88 30z"/>
<path d="M8086 3419 c-21 -17 -26 -18 -26 -5 0 9 -8 16 -20 16 -19 0 -20 -7
-20 -130 0 -121 1 -130 19 -130 17 0 19 10 23 96 3 86 5 98 27 115 30 24 56
24 81 -1 17 -17 20 -33 20 -115 0 -95 0 -95 25 -95 25 0 25 1 25 90 0 57 -5
104 -15 125 -23 55 -91 72 -139 34z"/>
<path d="M8331 3414 c-62 -52 -62 -156 1 -209 26 -22 39 -26 71 -22 21 3 47
13 58 23 18 17 19 16 19 -18 0 -21 -7 -41 -18 -51 -23 -21 -82 -22 -108 -2
-48 36 -75 3 -28 -34 32 -25 111 -28 153 -6 41 21 51 61 51 206 l0 129 -25 0
c-16 0 -25 -6 -25 -16 0 -13 -5 -12 -26 5 -37 29 -85 27 -123 -5z m124 -39
c56 -55 14 -165 -58 -151 -68 13 -89 104 -37 156 27 27 66 25 95 -5z"/>
<path d="M8766 3419 c-21 -17 -26 -18 -26 -5 0 9 -8 16 -20 16 -19 0 -20 -7
-20 -130 0 -121 1 -130 19 -130 17 0 19 10 23 96 3 86 5 98 27 115 30 24 56
24 81 -1 17 -17 20 -33 20 -115 0 -95 0 -95 25 -95 25 0 25 1 25 90 0 57 -5
104 -15 125 -23 55 -91 72 -139 34z"/>
<path d="M9028 3424 c-87 -47 -80 -213 9 -251 49 -20 98 -9 137 30 31 32 31
32 8 35 -13 2 -32 -4 -41 -12 -29 -26 -86 -21 -110 10 -38 48 -30 54 74 54
l95 0 0 26 c0 92 -93 151 -172 108z m85 -35 c25 -14 37 -28 37 -46 0 -9 -21
-13 -70 -13 l-71 0 16 29 c21 41 49 50 88 30z"/>
<path d="M9298 3424 c-87 -47 -80 -213 9 -251 49 -20 98 -9 137 30 31 32 31
32 8 35 -13 2 -32 -4 -41 -12 -29 -26 -86 -21 -110 10 -38 48 -30 54 74 54
l95 0 0 26 c0 92 -93 151 -172 108z m85 -35 c25 -14 37 -28 37 -46 0 -9 -21
-13 -70 -13 l-71 0 16 29 c21 41 49 50 88 30z"/>
<path d="M9596 3419 c-21 -17 -26 -18 -26 -5 0 9 -8 16 -20 16 -19 0 -20 -7
-20 -130 0 -123 1 -130 20 -130 18 0 20 7 20 83 0 104 13 131 63 135 32 3 37
7 37 28 0 31 -36 33 -74 3z"/>
<path d="M9876 3419 c-21 -17 -26 -18 -26 -5 0 9 -8 16 -20 16 -19 0 -20 -7
-20 -130 0 -121 1 -130 19 -130 17 0 19 10 23 96 3 86 5 98 27 115 30 24 56
24 81 -1 17 -17 20 -33 20 -115 0 -95 0 -95 25 -95 25 0 25 1 25 90 0 57 -5
104 -15 125 -23 55 -91 72 -139 34z"/>
<path d="M10121 3414 c-62 -52 -62 -156 1 -209 26 -22 39 -26 71 -22 21 3 47
13 58 23 18 17 19 16 19 -18 0 -21 -7 -41 -18 -51 -23 -21 -82 -22 -108 -2
-48 36 -75 3 -28 -34 32 -25 111 -28 153 -6 41 21 51 61 51 206 l0 129 -25 0
c-16 0 -25 -6 -25 -16 0 -13 -5 -12 -26 5 -37 29 -85 27 -123 -5z m124 -39
c56 -55 14 -165 -58 -151 -68 13 -89 104 -37 156 27 27 66 25 95 -5z"/>
<path d="M6520 3418 c0 -7 16 -65 34 -128 30 -103 36 -115 57 -118 22 -3 26 3
48 85 13 48 27 92 31 96 4 4 12 -9 18 -30 6 -21 18 -64 27 -95 14 -50 20 -58
40 -58 20 0 26 7 35 43 10 35 29 104 56 200 4 13 -1 17 -18 17 -22 0 -26 -8
-49 -102 l-25 -103 -29 103 c-25 91 -31 102 -51 102 -20 0 -26 -9 -40 -57 -9
-32 -22 -78 -29 -103 l-12 -45 -11 40 c-6 22 -17 67 -25 100 -11 49 -18 61
-35 63 -13 2 -22 -2 -22 -10z"/>
<path d="M8590 3300 c0 -123 1 -130 20 -130 19 0 20 7 20 130 0 123 -1 130
-20 130 -19 0 -20 -7 -20 -130z"/>
<path d="M9700 3300 c0 -123 1 -130 20 -130 19 0 20 7 20 130 0 123 -1 130
-20 130 -19 0 -20 -7 -20 -130z"/>
<path d="M10774 2165 c-4 -9 0 -23 9 -32 21 -21 49 -9 45 19 -4 28 -45 38 -54
13z"/>
<path d="M5320 2151 c-19 -10 -45 -36 -58 -57 -19 -33 -22 -51 -20 -116 3 -85
18 -115 78 -155 64 -44 174 -20 213 45 25 43 22 52 -18 52 -19 0 -35 -4 -35
-10 0 -24 -41 -50 -79 -50 -79 0 -119 102 -79 203 13 33 36 47 77 47 43 0 60
-9 77 -41 11 -22 22 -29 44 -29 36 0 39 18 10 65 -38 62 -139 84 -210 46z"/>
<path d="M5644 2151 c-56 -34 -68 -107 -24 -151 11 -11 45 -26 77 -35 32 -9
64 -19 72 -24 54 -29 25 -81 -45 -81 -33 0 -47 5 -62 25 -27 34 -72 35 -72 2
0 -44 67 -87 136 -87 84 0 137 48 132 121 -4 52 -29 73 -113 95 -68 18 -85 29
-85 54 0 46 88 62 120 22 16 -20 80 -33 80 -17 0 20 -35 67 -60 80 -41 21
-118 19 -156 -4z"/>
<path d="M6104 2161 c-28 -12 -64 -59 -64 -82 0 -29 52 -26 65 3 15 34 57 45
89 24 48 -31 23 -86 -40 -86 -29 0 -34 -3 -34 -24 0 -20 6 -25 45 -30 91 -14
87 -106 -5 -106 -31 0 -43 5 -56 25 -11 17 -25 25 -45 25 -33 0 -35 -9 -14
-49 27 -53 111 -76 178 -47 86 36 100 132 24 170 -18 9 -26 16 -19 16 26 0 52
40 52 78 0 55 -34 84 -102 89 -29 1 -63 -1 -74 -6z"/>
<path d="M6424 2160 c-30 -12 -64 -58 -64 -87 0 -15 13 -37 31 -54 17 -16 26
-29 20 -29 -26 0 -61 -49 -61 -86 0 -103 180 -141 254 -53 35 41 33 74 -7 114
l-33 33 23 20 c25 22 31 69 13 103 -23 41 -118 63 -176 39z m104 -56 c58 -41
-14 -108 -79 -74 -12 7 -19 21 -19 40 0 47 53 66 98 34z m15 -161 c25 -23 21
-48 -10 -73 -48 -38 -116 -11 -111 44 5 53 75 70 121 29z"/>
<path d="M6744 2160 c-30 -12 -64 -58 -64 -87 0 -15 13 -37 31 -54 17 -16 26
-29 20 -29 -26 0 -61 -49 -61 -86 0 -103 180 -141 254 -53 35 41 33 74 -7 114
l-33 33 23 20 c25 22 31 69 13 103 -23 41 -118 63 -176 39z m104 -56 c58 -41
-14 -108 -79 -74 -12 7 -19 21 -19 40 0 47 53 66 98 34z m15 -161 c25 -23 21
-48 -10 -73 -48 -38 -116 -11 -111 44 5 53 75 70 121 29z"/>
<path d="M7190 2151 c-20 -10 -44 -36 -58 -62 -20 -38 -23 -54 -19 -117 5 -81
20 -111 77 -149 62 -42 162 -23 200 39 25 41 25 48 0 48 -11 0 -33 -14 -48
-31 -21 -24 -35 -30 -68 -31 -23 0 -50 5 -61 10 -48 26 -68 136 -39 207 31 73
122 84 173 20 27 -33 63 -47 63 -25 0 25 -33 72 -63 90 -41 25 -111 26 -157 1z"/>
<path d="M9524 2151 c-45 -27 -59 -74 -37 -120 15 -31 27 -39 78 -54 113 -35
123 -43 111 -92 -12 -48 -131 -52 -156 -5 -13 24 -50 27 -50 4 0 -26 54 -72
93 -79 90 -17 167 30 167 102 0 53 -31 80 -117 104 -94 26 -116 59 -67 98 39
30 80 27 114 -9 44 -48 79 -33 50 21 -26 48 -129 65 -186 30z"/>
<path d="M4670 1985 l0 -175 115 0 115 0 0 30 0 30 -80 0 -80 0 0 45 0 45 75
0 75 0 0 30 0 30 -75 0 -75 0 0 45 0 45 80 0 c79 0 80 0 80 25 l0 25 -115 0
-115 0 0 -175z"/>
<path d="M4960 1985 l0 -175 115 0 115 0 0 30 0 30 -80 0 -80 0 0 45 0 45 75
0 75 0 0 30 0 30 -75 0 -75 0 0 45 0 45 80 0 c79 0 80 0 80 25 l0 25 -115 0
-115 0 0 -175z"/>
<path d="M8750 2105 c0 -28 -4 -35 -20 -35 -11 0 -20 -7 -20 -15 0 -8 9 -15
20 -15 18 0 20 -7 20 -87 0 -114 12 -137 68 -141 37 -3 42 -1 42 17 0 15 -6
21 -24 21 -31 0 -36 15 -36 111 l0 79 30 0 c20 0 30 5 30 15 0 10 -10 15 -30
15 -28 0 -30 3 -30 35 0 31 -3 35 -25 35 -22 0 -25 -4 -25 -35z"/>
<path d="M10900 2105 c0 -28 -4 -35 -20 -35 -11 0 -20 -7 -20 -15 0 -8 9 -15
20 -15 18 0 20 -7 20 -87 0 -114 12 -137 68 -141 37 -3 42 -1 42 17 0 15 -6
21 -24 21 -31 0 -36 15 -36 111 l0 79 30 0 c20 0 30 5 30 15 0 10 -10 15 -30
15 -28 0 -30 3 -30 35 0 31 -3 35 -25 35 -22 0 -25 -4 -25 -35z"/>
<path d="M7513 2060 c-42 -25 -56 -53 -56 -114 -1 -65 22 -109 69 -131 62 -29
133 -3 160 61 54 128 -62 252 -173 184z m112 -45 c20 -19 25 -34 25 -72 0 -66
-20 -93 -69 -93 -44 0 -68 21 -77 67 -18 92 62 157 121 98z"/>
<path d="M7816 2059 c-21 -17 -26 -18 -26 -5 0 9 -8 16 -20 16 -19 0 -20 -7
-20 -130 0 -123 1 -130 20 -130 19 0 20 7 20 90 0 83 2 93 25 115 27 28 37 30
66 15 17 -10 19 -22 19 -115 l0 -105 25 0 c25 0 25 0 25 95 0 82 3 98 20 115
22 22 42 25 71 10 17 -10 19 -22 19 -115 l0 -105 25 0 c25 0 25 0 25 100 0 54
-5 110 -11 123 -22 48 -89 61 -133 26 l-26 -20 -26 20 c-15 12 -37 21 -49 21
-12 0 -34 -9 -49 -21z"/>
<path d="M8243 2060 c-27 -16 -33 -17 -33 -5 0 8 -9 15 -20 15 -19 0 -20 -7
-20 -175 0 -168 1 -175 20 -175 18 0 20 7 20 65 l0 66 21 -20 c95 -88 215 41
164 174 -27 72 -89 94 -152 55z m94 -46 c22 -22 25 -32 21 -79 -6 -67 -20 -85
-68 -85 -52 0 -73 27 -74 91 -1 44 3 54 27 75 36 31 62 30 94 -2z"/>
<path d="M8948 2064 c-87 -47 -80 -213 9 -251 49 -20 98 -9 137 30 31 32 31
32 8 35 -13 2 -32 -4 -41 -12 -29 -26 -86 -21 -110 10 -38 48 -30 54 74 54
l95 0 0 26 c0 92 -93 151 -172 108z m85 -35 c25 -14 37 -28 37 -46 0 -9 -21
-13 -70 -13 l-71 0 16 29 c21 41 49 50 88 30z"/>
<path d="M9246 2059 c-21 -17 -26 -18 -26 -5 0 9 -8 16 -20 16 -19 0 -20 -7
-20 -130 0 -123 1 -130 20 -130 18 0 20 7 20 83 0 104 13 131 63 135 32 3 37
7 37 28 0 31 -36 33 -74 3z"/>
<path d="M9828 2064 c-87 -47 -80 -213 9 -251 49 -20 98 -9 137 30 31 32 31
32 8 35 -13 2 -32 -4 -41 -12 -29 -26 -86 -21 -110 10 -38 48 -30 54 74 54
l95 0 0 26 c0 92 -93 151 -172 108z m85 -35 c25 -14 37 -28 37 -46 0 -9 -21
-13 -70 -13 l-71 0 16 29 c21 41 49 50 88 30z"/>
<path d="M10103 2061 c-17 -11 -36 -28 -41 -38 -30 -59 -19 -148 24 -188 53
-49 147 -37 179 24 15 30 15 31 -7 31 -13 0 -29 -9 -36 -20 -16 -26 -82 -28
-105 -2 -40 44 -28 139 19 161 37 16 52 14 80 -14 25 -25 64 -34 64 -15 0 5
-13 24 -28 41 -37 41 -102 50 -149 20z"/>
<path d="M10666 2059 c-21 -17 -26 -18 -26 -5 0 9 -8 16 -20 16 -19 0 -20 -7
-20 -130 0 -123 1 -130 20 -130 18 0 20 7 20 83 0 104 13 131 63 135 32 3 37
7 37 28 0 31 -36 33 -74 3z"/>
<path d="M8450 1988 c0 -118 13 -156 57 -175 39 -16 78 -11 106 14 15 15 17
15 17 0 0 -10 8 -17 20 -17 19 0 20 7 20 130 0 123 -1 130 -20 130 -18 0 -20
-7 -20 -82 0 -106 -13 -132 -65 -136 -56 -5 -65 12 -65 125 0 93 0 93 -25 93
-25 0 -25 -1 -25 -82z"/>
<path d="M10310 1988 c0 -118 13 -156 57 -175 39 -16 78 -11 106 14 15 15 17
15 17 0 0 -10 8 -17 20 -17 19 0 20 7 20 130 0 123 -1 130 -20 130 -18 0 -20
-7 -20 -82 0 -106 -13 -132 -65 -136 -56 -5 -65 12 -65 125 0 93 0 93 -25 93
-25 0 -25 -1 -25 -82z"/>
<path d="M10780 1940 c0 -123 1 -130 20 -130 19 0 20 7 20 130 0 123 -1 130
-20 130 -19 0 -20 -7 -20 -130z"/>
<path d="M11040 2063 c0 -4 21 -63 46 -131 38 -104 44 -129 35 -148 -7 -16
-19 -24 -36 -24 -18 0 -25 -5 -25 -20 0 -26 49 -28 78 -2 18 14 132 296 132
323 0 5 -10 9 -23 9 -20 0 -27 -12 -58 -106 l-34 -106 -35 106 c-30 94 -37
106 -57 106 -13 0 -23 -3 -23 -7z"/>
</g>
</svg>
