<?xml version="1.0" standalone="no"?>
<!DOCTYPE svg PUBLIC "-//W3C//DTD SVG 20010904//EN"
 "http://www.w3.org/TR/2001/REC-SVG-20010904/DTD/svg10.dtd">
<svg version="1.0" xmlns="http://www.w3.org/2000/svg"
 width="2799.000000pt" height="1984.000000pt" viewBox="0 0 2799.000000 1984.000000"
 preserveAspectRatio="xMidYMid meet">

<g transform="translate(0.000000,1984.000000) scale(0.100000,-0.100000)"
fill="powderblue" stroke="none">
<path d="M17175 18799 c-249 -37 -440 -206 -512 -454 -16 -56 -18 -169 -21
-1575 -2 -1020 1 -1541 8 -1595 14 -113 44 -195 102 -281 81 -122 202 -207
353 -251 54 -15 139 -18 805 -23 l745 -5 -45 -22 c-25 -12 -1343 -629 -2930
-1372 l-2885 -1349 -16 30 -16 30 -48 -60 -47 -61 -817 -3 c-908 -4 -856 0
-1003 -74 -103 -52 -213 -163 -262 -266 -76 -158 -71 -43 -71 -1753 0 -1710
-5 -1595 71 -1753 49 -103 159 -214 262 -266 152 -77 14 -71 1762 -71 1748 0
1610 -6 1762 71 103 52 213 163 262 266 76 158 71 43 71 1753 0 1710 5 1595
-71 1753 -49 103 -159 214 -262 266 -144 72 -111 70 -869 74 -417 2 -684 7
-684 13 -1 5 -2 14 -3 19 -1 8 5884 2770 5901 2770 1 0 3 -598 3 -1330 l0
-1330 -35 0 -35 0 35 -70 35 -69 -778 -3 c-866 -4 -822 -1 -972 -76 -101 -50
-202 -151 -252 -252 -79 -156 -72 -16 -76 -1710 -2 -1020 1 -1541 8 -1595 14
-113 44 -195 102 -281 83 -124 205 -210 358 -251 61 -17 164 -18 1615 -18
1240 0 1563 3 1615 13 170 35 340 163 413 312 78 158 72 20 72 1765 0 1746 6
1608 -72 1765 -72 144 -232 269 -398 311 -37 9 -248 13 -827 16 l-778 4 35 69
35 70 -35 0 -35 0 0 1326 c0 1258 1 1325 18 1320 9 -3 1390 -622 3067 -1376
2414 -1084 3050 -1373 3050 -1387 0 -17 -40 -18 -800 -23 -889 -6 -841 -3
-987 -76 -103 -52 -213 -163 -262 -266 -76 -158 -71 -43 -71 -1753 0 -1710 -5
-1595 71 -1753 49 -103 159 -214 262 -266 152 -77 14 -71 1762 -71 1748 0
1610 -6 1762 71 103 52 213 163 262 266 76 158 71 43 71 1753 0 1710 5 1595
-71 1753 -49 103 -159 214 -262 266 -143 72 -110 69 -889 75 -386 4 -703 8
-705 11 -2 3 -24 29 -48 58 l-43 54 -16 -30 -16 -30 -3054 1371 -3055 1372
755 6 c553 4 767 9 804 18 166 42 329 169 398 311 78 158 72 20 72 1765 0
1746 6 1608 -72 1765 -72 144 -231 269 -398 311 -39 10 -377 13 -1585 15 -845
1 -1562 -2 -1595 -7z m3175 -37 c215 -60 383 -232 432 -442 10 -44 13 -376 13
-1610 0 -1454 -1 -1559 -18 -1619 -57 -209 -228 -374 -437 -423 -84 -20 -3131
-19 -3210 1 -224 56 -385 217 -441 441 -21 82 -21 3128 0 3210 63 253 252 419
516 453 17 2 721 4 1565 3 1197 -2 1545 -5 1580 -14z m-6115 -7005 c221 -66
371 -225 423 -447 16 -69 17 -187 17 -1595 0 -1435 -1 -1524 -18 -1598 -53
-223 -206 -383 -428 -444 -60 -17 -161 -18 -1619 -18 -1458 0 -1559 1 -1619
18 -222 61 -377 223 -429 447 -16 69 -17 187 -17 1595 0 1408 1 1526 17 1595
58 247 245 423 490 459 36 5 712 8 1593 7 1436 -1 1534 -2 1590 -19z m6115 5
c215 -60 383 -232 432 -442 10 -44 13 -376 13 -1610 0 -1454 -1 -1559 -18
-1619 -57 -209 -228 -374 -437 -423 -84 -20 -3131 -19 -3210 1 -224 56 -385
217 -441 441 -21 82 -21 3128 0 3210 63 253 252 419 516 453 17 2 721 4 1565
3 1197 -2 1545 -5 1580 -14z m6135 -5 c221 -66 371 -225 423 -447 16 -69 17
-187 17 -1595 0 -1435 -1 -1524 -18 -1598 -53 -223 -206 -383 -428 -444 -60
-17 -161 -18 -1619 -18 -1458 0 -1559 1 -1619 18 -222 61 -377 223 -429 447
-16 69 -17 187 -17 1595 0 1408 1 1526 17 1595 58 247 245 423 490 459 36 5
712 8 1593 7 1436 -1 1534 -2 1590 -19z"/>
<path d="M18582 16908 c-26 -26 1 -65 38 -53 16 5 20 14 18 33 -3 30 -35 41
-56 20z"/>
<path d="M18450 16725 l0 -185 30 0 30 0 0 185 0 185 -30 0 -30 0 0 -185z"/>
<path d="M18170 16878 c-53 -37 -73 -71 -78 -135 -6 -81 11 -135 53 -172 62
-54 152 -53 210 2 18 18 36 42 40 55 10 35 -40 30 -75 -8 -30 -32 -82 -41
-119 -20 -21 11 -51 78 -51 113 0 83 54 144 115 131 34 -7 65 -31 65 -51 0 -8
12 -13 35 -13 41 0 43 6 12 51 -45 68 -143 90 -207 47z"/>
<path d="M19286 16843 c1 -21 -5 -29 -20 -33 -31 -8 -34 -48 -4 -52 22 -3 23
-7 25 -93 2 -79 4 -92 23 -107 12 -10 37 -18 56 -18 29 0 34 3 34 24 0 18 -6
25 -22 28 -21 3 -23 9 -26 86 -3 82 -3 82 23 82 20 0 25 5 25 25 0 20 -5 25
-25 25 -21 0 -25 5 -25 30 0 27 -3 30 -33 30 -29 0 -33 -3 -31 -27z"/>
<path d="M18580 16675 l0 -135 30 0 30 0 0 135 0 135 -30 0 -30 0 0 -135z"/>
<path d="M18751 16797 c-64 -32 -87 -135 -46 -204 23 -40 53 -53 116 -53 44 0
55 4 82 32 l32 33 -24 3 c-13 2 -42 -4 -63 -14 -36 -16 -43 -16 -67 -3 -16 9
-27 25 -29 42 l-3 27 90 0 c91 0 91 0 91 25 0 94 -97 154 -179 112z m101 -54
c34 -31 23 -43 -42 -43 -45 0 -60 3 -60 14 0 41 67 61 102 29z"/>
<path d="M18980 16675 l0 -135 30 0 30 0 0 93 c0 101 12 127 58 127 42 0 52
-25 52 -126 l0 -94 30 0 30 0 0 100 c0 105 -13 151 -45 164 -33 12 -82 6 -102
-13 -21 -20 -21 -20 -26 0 -3 13 -14 19 -31 19 l-26 0 0 -135z"/>
<path d="M11744 9896 c-32 -14 -64 -51 -64 -73 0 -22 48 -14 74 12 42 42 106
27 106 -24 0 -35 -14 -47 -62 -56 -28 -5 -38 -12 -38 -26 0 -15 7 -19 33 -19
46 0 77 -24 77 -61 0 -56 -91 -72 -129 -23 -12 15 -29 24 -46 24 -23 0 -25 -3
-20 -22 10 -35 58 -74 98 -82 48 -9 108 8 136 38 42 44 24 124 -30 141 -17 6
-16 9 11 32 51 42 38 112 -25 139 -42 17 -81 17 -121 0z"/>
<path d="M12492 9893 c-39 -19 -54 -44 -54 -90 0 -44 33 -80 86 -94 23 -6 55
-16 73 -21 54 -16 55 -68 3 -87 -37 -13 -96 3 -110 29 -15 28 -60 27 -60 -1 0
-34 51 -76 102 -84 97 -15 168 31 168 107 0 52 -31 81 -101 98 -95 22 -126 60
-77 94 32 23 65 20 94 -9 15 -15 36 -25 54 -25 30 0 30 0 17 31 -25 61 -123
88 -195 52z"/>
<path d="M11330 9725 l0 -175 87 0 c112 0 162 22 192 84 28 57 27 129 -1 186
-33 64 -71 80 -185 80 l-93 0 0 -175z m206 92 c29 -34 38 -92 22 -142 -15 -47
-61 -75 -120 -75 l-38 0 0 126 0 126 57 -4 c45 -4 61 -10 79 -31z"/>
<path d="M12000 9725 l0 -175 95 0 c134 0 175 24 175 103 0 35 -33 77 -61 77
-8 0 -1 10 16 24 40 32 41 88 1 122 -25 22 -36 24 -127 24 l-99 0 0 -175z
m178 113 c7 -7 12 -24 12 -39 0 -21 -7 -29 -31 -38 -18 -6 -45 -11 -60 -11
-28 0 -29 2 -29 50 l0 50 48 0 c26 0 53 -5 60 -12z m10 -144 c26 -18 28 -50 5
-76 -12 -13 -30 -18 -70 -18 l-53 0 0 55 0 55 48 0 c27 0 57 -7 70 -16z"/>
<path d="M12811 9807 c-64 -32 -87 -135 -46 -204 23 -40 53 -53 116 -53 44 0
55 4 82 32 l32 33 -24 3 c-13 2 -42 -4 -63 -14 -36 -16 -43 -16 -67 -3 -16 9
-27 25 -29 42 l-3 27 90 0 c91 0 91 0 91 25 0 94 -97 154 -179 112z m101 -54
c34 -31 23 -43 -42 -43 -45 0 -60 3 -60 14 0 41 67 61 102 29z"/>
<path d="M13040 9685 l0 -135 30 0 30 0 0 94 c0 102 4 111 58 122 25 5 32 12
32 30 0 19 -5 24 -25 24 -14 0 -34 -9 -44 -19 -19 -19 -19 -19 -24 0 -3 13
-14 19 -31 19 l-26 0 0 -135z"/>
<path d="M13220 9808 c0 -7 20 -67 44 -133 43 -119 43 -120 77 -123 l34 -3 43
123 c23 68 42 129 42 136 0 9 -10 12 -27 10 -26 -3 -30 -10 -59 -108 l-32
-105 -33 108 c-31 103 -33 107 -61 107 -16 0 -28 -5 -28 -12z"/>
<path d="M13551 9807 c-64 -32 -87 -135 -46 -204 23 -40 53 -53 116 -53 44 0
55 4 82 32 l32 33 -24 3 c-13 2 -42 -4 -63 -14 -36 -16 -43 -16 -67 -3 -16 9
-27 25 -29 42 l-3 27 90 0 c91 0 91 0 91 25 0 94 -97 154 -179 112z m101 -54
c34 -31 23 -43 -42 -43 -45 0 -60 3 -60 14 0 41 67 61 102 29z"/>
<path d="M13780 9685 l0 -135 30 0 30 0 0 94 c0 102 4 111 58 122 25 5 32 12
32 30 0 19 -5 24 -25 24 -14 0 -34 -9 -44 -19 -19 -19 -19 -19 -24 0 -3 13
-14 19 -31 19 l-26 0 0 -135z"/>
<path d="M12110 8515 c0 -178 1 -185 20 -185 19 0 20 7 20 185 0 178 -1 185
-20 185 -19 0 -20 -7 -20 -185z"/>
<path d="M12216 8683 c-4 -9 0 -23 9 -32 13 -14 17 -14 31 1 9 9 14 24 11 32
-8 21 -43 20 -51 -1z"/>
<path d="M13380 8630 l0 -70 -32 20 c-40 24 -60 25 -98 5 -40 -20 -60 -63 -60
-125 0 -56 20 -104 49 -120 33 -17 95 -12 119 10 l22 21 0 -21 c0 -13 7 -20
20 -20 19 0 20 7 20 185 0 178 -1 185 -20 185 -18 0 -20 -7 -20 -70z m-25 -95
c19 -19 25 -35 25 -70 0 -56 -13 -83 -46 -95 -63 -24 -110 27 -101 109 9 77
73 106 122 56z"/>
<path d="M13490 8515 c0 -178 1 -185 20 -185 14 0 20 7 20 21 l0 20 26 -20
c32 -25 90 -27 123 -5 48 34 65 126 35 189 -28 59 -119 82 -155 39 -22 -27
-29 -14 -29 56 0 63 -2 70 -20 70 -19 0 -20 -7 -20 -185z m170 20 c19 -20 24
-37 24 -77 0 -43 -4 -54 -28 -74 -34 -30 -58 -30 -92 -1 -23 20 -28 32 -28 75
-1 40 4 56 23 76 31 33 70 34 101 1z"/>
<path d="M11573 8675 c-17 -7 -36 -22 -42 -34 -12 -22 -14 -70 -5 -96 8 -20
67 -50 114 -59 53 -9 80 -32 80 -66 0 -50 -71 -75 -129 -45 -16 8 -31 21 -34
30 -8 20 -47 20 -47 -1 0 -26 54 -72 93 -79 86 -16 154 22 164 91 7 58 -22 87
-113 113 -84 25 -102 40 -88 79 18 52 133 53 149 1 8 -25 45 -25 45 -1 0 23
-34 60 -67 73 -34 13 -82 11 -120 -6z"/>
<path d="M12835 8677 c-34 -16 -50 -32 -59 -64 -11 -34 20 -30 54 7 47 50 123
35 123 -25 0 -37 -35 -65 -79 -65 -27 0 -34 -4 -34 -20 0 -17 7 -20 44 -20 67
0 103 -48 72 -95 -29 -45 -127 -41 -141 6 -8 25 -45 25 -45 1 0 -25 40 -60 81
-72 111 -32 209 81 134 155 -13 14 -32 25 -42 25 -13 0 -9 6 14 19 36 23 47
49 38 92 -12 54 -98 84 -160 56z"/>
<path d="M12358 8628 c-2 -25 -8 -34 -25 -36 -13 -2 -23 -10 -23 -17 0 -7 10
-15 23 -17 21 -3 22 -9 27 -106 5 -113 10 -122 68 -122 26 0 33 4 30 17 -2 9
-14 20 -28 23 -24 6 -25 9 -28 98 l-3 92 31 0 c20 0 30 5 30 15 0 10 -10 15
-30 15 -28 0 -30 3 -30 35 0 28 -4 35 -19 35 -15 0 -21 -8 -23 -32z"/>
<path d="M11868 8584 c-38 -20 -58 -63 -58 -124 0 -56 20 -104 49 -120 29 -15
93 -12 119 6 l22 15 0 -60 c0 -54 2 -61 20 -61 19 0 20 7 20 175 0 168 -1 175
-20 175 -11 0 -20 -7 -20 -15 0 -12 -6 -11 -32 5 -39 24 -63 25 -100 4z m107
-49 c19 -19 25 -35 25 -70 0 -57 -13 -83 -47 -96 -61 -23 -111 33 -100 114 10
73 74 101 122 52z"/>
<path d="M12553 8586 c-42 -19 -63 -62 -63 -132 0 -50 3 -59 34 -90 30 -30 41
-34 84 -34 35 0 57 6 76 21 52 41 21 68 -33 28 -21 -16 -36 -19 -59 -14 -36 7
-48 20 -57 58 l-7 27 96 0 c107 0 112 4 82 73 -27 65 -90 91 -153 63z m97 -46
c11 -11 20 -29 20 -40 0 -18 -7 -20 -70 -20 -79 0 -89 12 -45 55 29 30 68 32
95 5z"/>
<path d="M12220 8460 c0 -123 1 -130 20 -130 19 0 20 7 20 130 0 123 -1 130
-20 130 -19 0 -20 -7 -20 -130z"/>
<path d="M17874 9896 c-32 -14 -64 -51 -64 -73 0 -22 48 -14 74 12 42 42 106
27 106 -24 0 -35 -14 -47 -62 -56 -28 -5 -38 -12 -38 -26 0 -15 7 -19 33 -19
46 0 77 -24 77 -61 0 -56 -91 -72 -129 -23 -12 15 -29 24 -46 24 -23 0 -25 -3
-20 -22 10 -35 58 -74 98 -82 48 -9 108 8 136 38 42 44 24 124 -30 141 -17 6
-16 9 11 32 51 42 38 112 -25 139 -42 17 -81 17 -121 0z"/>
<path d="M18622 9893 c-39 -19 -54 -44 -54 -90 0 -44 33 -80 86 -94 23 -6 55
-16 73 -21 54 -16 55 -68 3 -87 -37 -13 -96 3 -110 29 -15 28 -60 27 -60 -1 0
-34 51 -76 102 -84 97 -15 168 31 168 107 0 52 -31 81 -101 98 -95 22 -126 60
-77 94 32 23 65 20 94 -9 15 -15 36 -25 54 -25 30 0 30 0 17 31 -25 61 -123
88 -195 52z"/>
<path d="M17450 9725 l0 -175 87 0 c112 0 162 22 192 84 28 57 27 129 -1 186
-33 64 -71 80 -185 80 l-93 0 0 -175z m206 92 c29 -34 38 -92 22 -142 -15 -47
-61 -75 -120 -75 l-38 0 0 126 0 126 57 -4 c45 -4 61 -10 79 -31z"/>
<path d="M18120 9725 l0 -175 95 0 c134 0 175 24 175 103 0 35 -33 77 -61 77
-8 0 -1 10 16 24 40 32 41 88 1 122 -25 22 -36 24 -127 24 l-99 0 0 -175z
m178 113 c7 -7 12 -24 12 -39 0 -21 -7 -29 -31 -38 -18 -6 -45 -11 -60 -11
-28 0 -29 2 -29 50 l0 50 48 0 c26 0 53 -5 60 -12z m10 -144 c26 -18 28 -50 5
-76 -12 -13 -30 -18 -70 -18 l-53 0 0 55 0 55 48 0 c27 0 57 -7 70 -16z"/>
<path d="M18931 9807 c-64 -32 -87 -135 -46 -204 23 -40 53 -53 116 -53 44 0
55 4 82 32 l32 33 -24 3 c-13 2 -42 -4 -63 -14 -36 -16 -43 -16 -67 -3 -16 9
-27 25 -29 42 l-3 27 90 0 c91 0 91 0 91 25 0 94 -97 154 -179 112z m101 -54
c34 -31 23 -43 -42 -43 -45 0 -60 3 -60 14 0 41 67 61 102 29z"/>
<path d="M19170 9685 l0 -135 30 0 30 0 0 94 c0 102 4 111 58 122 25 5 32 12
32 30 0 19 -5 24 -25 24 -14 0 -34 -9 -44 -19 -19 -19 -19 -19 -24 0 -3 13
-14 19 -31 19 l-26 0 0 -135z"/>
<path d="M19340 9808 c0 -7 20 -67 44 -133 43 -119 43 -120 77 -123 l34 -3 43
123 c23 68 42 129 42 136 0 9 -10 12 -27 10 -26 -3 -30 -10 -59 -108 l-32
-105 -33 108 c-31 103 -33 107 -61 107 -16 0 -28 -5 -28 -12z"/>
<path d="M19671 9807 c-64 -32 -87 -135 -46 -204 23 -40 53 -53 116 -53 44 0
55 4 82 32 l32 33 -24 3 c-13 2 -42 -4 -63 -14 -36 -16 -43 -16 -67 -3 -16 9
-27 25 -29 42 l-3 27 90 0 c91 0 91 0 91 25 0 94 -97 154 -179 112z m101 -54
c34 -31 23 -43 -42 -43 -45 0 -60 3 -60 14 0 41 67 61 102 29z"/>
<path d="M19910 9685 l0 -135 30 0 30 0 0 94 c0 102 4 111 58 122 25 5 32 12
32 30 0 19 -5 24 -25 24 -14 0 -34 -9 -44 -19 -19 -19 -19 -19 -24 0 -3 13
-14 19 -31 19 l-26 0 0 -135z"/>
<path d="M18220 8525 c0 -178 1 -185 20 -185 19 0 20 7 20 185 0 178 -1 185
-20 185 -19 0 -20 -7 -20 -185z"/>
<path d="M18336 8693 c-4 -9 0 -23 9 -32 13 -14 17 -14 31 1 9 9 14 24 11 32
-8 21 -43 20 -51 -1z"/>
<path d="M19490 8640 l0 -70 -32 20 c-40 24 -60 25 -98 5 -40 -20 -60 -63 -60
-125 0 -56 20 -104 49 -120 33 -17 95 -12 119 10 l22 21 0 -21 c0 -13 7 -20
20 -20 19 0 20 7 20 185 0 178 -1 185 -20 185 -18 0 -20 -7 -20 -70z m-25 -95
c19 -19 25 -35 25 -70 0 -56 -13 -83 -46 -95 -63 -24 -110 27 -101 109 9 77
73 106 122 56z"/>
<path d="M19600 8525 c0 -178 1 -185 20 -185 14 0 20 7 20 21 l0 20 26 -20
c32 -25 90 -27 123 -5 48 34 65 126 35 189 -28 59 -119 82 -155 39 -22 -27
-29 -14 -29 56 0 63 -2 70 -20 70 -19 0 -20 -7 -20 -185z m170 20 c19 -20 24
-37 24 -77 0 -43 -4 -54 -28 -74 -34 -30 -58 -30 -92 -1 -23 20 -28 32 -28 75
-1 40 4 56 23 76 31 33 70 34 101 1z"/>
<path d="M17683 8685 c-17 -7 -36 -22 -42 -34 -12 -22 -14 -70 -5 -96 8 -20
67 -50 114 -59 53 -9 80 -32 80 -66 0 -50 -71 -75 -129 -45 -16 8 -31 21 -34
30 -8 20 -47 20 -47 -1 0 -26 54 -72 93 -79 86 -16 154 22 164 91 7 58 -22 87
-113 113 -84 25 -102 40 -88 79 18 52 133 53 149 1 8 -25 45 -25 45 -1 0 23
-34 60 -67 73 -34 13 -82 11 -120 -6z"/>
<path d="M18945 8687 c-34 -16 -50 -32 -59 -64 -11 -34 20 -30 54 7 47 50 123
35 123 -25 0 -37 -35 -65 -79 -65 -27 0 -34 -4 -34 -20 0 -17 7 -20 43 -20 48
0 59 -6 76 -38 29 -54 -44 -109 -108 -82 -17 7 -33 21 -36 31 -8 25 -45 25
-45 1 0 -25 39 -60 79 -72 78 -22 161 27 161 94 0 41 -35 86 -67 86 -13 0 -9
6 14 19 36 23 47 49 38 92 -12 54 -98 84 -160 56z"/>
<path d="M18468 8638 c-2 -25 -8 -34 -25 -36 -13 -2 -23 -10 -23 -17 0 -7 10
-15 23 -17 21 -3 22 -9 27 -106 5 -113 10 -122 68 -122 26 0 33 4 30 17 -2 9
-14 20 -28 23 -24 6 -25 9 -28 98 l-3 92 31 0 c20 0 30 5 30 15 0 10 -10 15
-30 15 -28 0 -30 3 -30 35 0 28 -4 35 -19 35 -15 0 -21 -8 -23 -32z"/>
<path d="M17978 8594 c-38 -20 -58 -63 -58 -124 0 -56 20 -104 49 -120 29 -15
93 -12 119 6 l22 15 0 -60 c0 -54 2 -61 20 -61 19 0 20 7 20 175 0 168 -1 175
-20 175 -11 0 -20 -7 -20 -15 0 -12 -6 -11 -32 5 -39 24 -63 25 -100 4z m107
-49 c19 -19 25 -35 25 -70 0 -57 -13 -83 -47 -96 -61 -23 -111 33 -100 114 10
73 74 101 122 52z"/>
<path d="M18663 8596 c-42 -19 -63 -62 -63 -132 0 -50 3 -59 34 -90 30 -30 41
-34 84 -34 35 0 57 6 76 21 52 41 21 68 -33 28 -21 -16 -36 -19 -59 -14 -36 7
-48 20 -57 58 l-7 27 96 0 c107 0 112 4 82 73 -27 65 -90 91 -153 63z m97 -46
c11 -11 20 -29 20 -40 0 -18 -7 -20 -70 -20 -79 0 -89 12 -45 55 29 30 68 32
95 5z"/>
<path d="M18340 8470 c0 -123 1 -130 20 -130 19 0 20 7 20 130 0 123 -1 130
-20 130 -19 0 -20 -7 -20 -130z"/>
<path d="M23994 9896 c-32 -14 -64 -51 -64 -73 0 -22 48 -14 74 12 42 42 106
27 106 -24 0 -35 -14 -47 -62 -56 -28 -5 -38 -12 -38 -26 0 -15 7 -19 33 -19
46 0 77 -24 77 -61 0 -56 -91 -72 -129 -23 -12 15 -29 24 -46 24 -23 0 -25 -3
-20 -22 10 -35 58 -74 98 -82 48 -9 108 8 136 38 42 44 24 124 -30 141 -17 6
-16 9 11 32 51 42 38 112 -25 139 -42 17 -81 17 -121 0z"/>
<path d="M24742 9893 c-39 -19 -54 -44 -54 -90 0 -44 33 -80 86 -94 23 -6 55
-16 73 -21 54 -16 55 -68 3 -87 -37 -13 -96 3 -110 29 -15 28 -60 27 -60 -1 0
-34 51 -76 102 -84 97 -15 168 31 168 107 0 52 -31 81 -101 98 -95 22 -126 60
-77 94 32 23 65 20 94 -9 15 -15 36 -25 54 -25 30 0 30 0 17 31 -25 61 -123
88 -195 52z"/>
<path d="M23580 9725 l0 -175 87 0 c112 0 162 22 192 84 28 57 27 129 -1 186
-33 64 -71 80 -185 80 l-93 0 0 -175z m206 92 c29 -34 38 -92 22 -142 -15 -47
-61 -75 -120 -75 l-38 0 0 126 0 126 57 -4 c45 -4 61 -10 79 -31z"/>
<path d="M24250 9725 l0 -175 95 0 c134 0 175 24 175 103 0 35 -33 77 -61 77
-8 0 -1 10 16 24 40 32 41 88 1 122 -25 22 -36 24 -127 24 l-99 0 0 -175z
m178 113 c7 -7 12 -24 12 -39 0 -21 -7 -29 -31 -38 -18 -6 -45 -11 -60 -11
-28 0 -29 2 -29 50 l0 50 48 0 c26 0 53 -5 60 -12z m10 -144 c26 -18 28 -50 5
-76 -12 -13 -30 -18 -70 -18 l-53 0 0 55 0 55 48 0 c27 0 57 -7 70 -16z"/>
<path d="M25061 9807 c-64 -32 -87 -135 -46 -204 23 -40 53 -53 116 -53 44 0
55 4 82 32 l32 33 -24 3 c-13 2 -42 -4 -63 -14 -36 -16 -43 -16 -67 -3 -16 9
-27 25 -29 42 l-3 27 90 0 c91 0 91 0 91 25 0 94 -97 154 -179 112z m101 -54
c34 -31 23 -43 -42 -43 -45 0 -60 3 -60 14 0 41 67 61 102 29z"/>
<path d="M25290 9685 l0 -135 30 0 30 0 0 94 c0 102 4 111 58 122 25 5 32 12
32 30 0 19 -5 24 -25 24 -14 0 -34 -9 -44 -19 -19 -19 -19 -19 -24 0 -3 13
-14 19 -31 19 l-26 0 0 -135z"/>
<path d="M25470 9808 c0 -7 20 -67 44 -133 43 -119 43 -120 77 -123 l34 -3 43
123 c23 68 42 129 42 136 0 9 -10 12 -27 10 -26 -3 -30 -10 -59 -108 l-32
-105 -33 108 c-31 103 -33 107 -61 107 -16 0 -28 -5 -28 -12z"/>
<path d="M25801 9807 c-64 -32 -87 -135 -46 -204 23 -40 53 -53 116 -53 44 0
55 4 82 32 l32 33 -24 3 c-13 2 -42 -4 -63 -14 -36 -16 -43 -16 -67 -3 -16 9
-27 25 -29 42 l-3 27 90 0 c91 0 91 0 91 25 0 94 -97 154 -179 112z m101 -54
c34 -31 23 -43 -42 -43 -45 0 -60 3 -60 14 0 41 67 61 102 29z"/>
<path d="M26030 9685 l0 -135 30 0 30 0 0 94 c0 102 4 111 58 122 25 5 32 12
32 30 0 19 -5 24 -25 24 -14 0 -34 -9 -44 -19 -19 -19 -19 -19 -24 0 -3 13
-14 19 -31 19 l-26 0 0 -135z"/>
<path d="M24340 8525 c0 -178 1 -185 20 -185 19 0 20 7 20 185 0 178 -1 185
-20 185 -19 0 -20 -7 -20 -185z"/>
<path d="M24446 8693 c-4 -9 0 -23 9 -32 13 -14 17 -14 31 1 9 9 14 24 11 32
-8 21 -43 20 -51 -1z"/>
<path d="M25610 8640 l0 -70 -32 20 c-40 24 -60 25 -98 5 -40 -20 -60 -63 -60
-125 0 -56 20 -104 49 -120 33 -17 95 -12 119 10 l22 21 0 -21 c0 -13 7 -20
20 -20 19 0 20 7 20 185 0 178 -1 185 -20 185 -18 0 -20 -7 -20 -70z m-25 -95
c19 -19 25 -35 25 -70 0 -56 -13 -83 -46 -95 -63 -24 -110 27 -101 109 9 77
73 106 122 56z"/>
<path d="M25720 8525 c0 -178 1 -185 20 -185 14 0 20 7 20 21 l0 20 26 -20
c32 -25 90 -27 123 -5 48 34 65 126 35 189 -28 59 -119 82 -155 39 -22 -27
-29 -14 -29 56 0 63 -2 70 -20 70 -19 0 -20 -7 -20 -185z m170 20 c19 -20 24
-37 24 -77 0 -43 -4 -54 -28 -74 -34 -30 -58 -30 -92 -1 -23 20 -28 32 -28 75
-1 40 4 56 23 76 31 33 70 34 101 1z"/>
<path d="M23793 8685 c-17 -7 -36 -22 -42 -34 -12 -22 -14 -70 -5 -96 8 -20
67 -50 114 -59 53 -9 80 -32 80 -66 0 -50 -71 -75 -129 -45 -16 8 -31 21 -34
30 -8 20 -47 20 -47 -1 0 -26 54 -72 93 -79 86 -16 154 22 164 91 7 58 -22 87
-113 113 -84 25 -102 40 -88 79 18 52 133 53 149 1 8 -25 45 -25 45 -1 0 23
-34 60 -67 73 -34 13 -82 11 -120 -6z"/>
<path d="M25065 8687 c-34 -16 -50 -32 -59 -64 -11 -34 20 -30 54 7 47 50 123
35 123 -25 0 -37 -35 -65 -79 -65 -27 0 -34 -4 -34 -20 0 -17 7 -20 43 -20 48
0 59 -6 76 -38 29 -54 -44 -109 -108 -82 -17 7 -33 21 -36 31 -8 25 -45 25
-45 1 0 -25 39 -60 79 -72 78 -22 161 27 161 94 0 41 -35 86 -67 86 -13 0 -9
6 14 19 36 23 47 49 38 92 -12 54 -98 84 -160 56z"/>
<path d="M24578 8638 c-2 -25 -8 -34 -25 -36 -13 -2 -23 -10 -23 -17 0 -7 10
-15 23 -17 21 -3 22 -9 27 -106 5 -113 10 -122 68 -122 26 0 33 4 30 17 -2 9
-14 20 -28 23 -24 6 -25 9 -28 98 l-3 92 31 0 c20 0 30 5 30 15 0 10 -10 15
-30 15 -28 0 -30 3 -30 35 0 28 -4 35 -19 35 -15 0 -21 -8 -23 -32z"/>
<path d="M24098 8594 c-38 -20 -58 -63 -58 -124 0 -56 20 -104 49 -120 29 -15
93 -12 119 6 l22 15 0 -60 c0 -54 2 -61 20 -61 19 0 20 7 20 175 0 168 -1 175
-20 175 -11 0 -20 -7 -20 -15 0 -12 -6 -11 -32 5 -39 24 -63 25 -100 4z m107
-49 c19 -19 25 -35 25 -70 0 -57 -13 -83 -47 -96 -61 -23 -111 33 -100 114 10
73 74 101 122 52z"/>
<path d="M24783 8596 c-42 -19 -63 -62 -63 -132 0 -50 3 -59 34 -90 30 -30 41
-34 84 -34 35 0 57 6 76 21 52 41 21 68 -33 28 -21 -16 -36 -19 -59 -14 -36 7
-48 20 -57 58 l-7 27 96 0 c107 0 112 4 82 73 -27 65 -90 91 -153 63z m97 -46
c11 -11 20 -29 20 -40 0 -18 -7 -20 -70 -20 -79 0 -89 12 -45 55 29 30 68 32
95 5z"/>
<path d="M24450 8470 c0 -123 1 -130 20 -130 19 0 20 7 20 130 0 123 -1 130
-20 130 -19 0 -20 -7 -20 -130z"/>
<path d="M10191 14731 c-9 -16 -26 -20 -108 -26 -54 -3 -145 -12 -203 -20
-163 -21 -197 -24 -320 -27 -114 -3 -115 -3 -112 20 4 28 -23 40 -46 20 -9 -8
-25 -18 -35 -21 -20 -7 -20 29 9 -457 14 -222 15 -356 9 -830 -5 -311 -9
-1123 -11 -1805 -1 -711 -7 -1351 -14 -1500 -22 -511 -24 -882 -6 -1104 10
-113 19 -208 22 -213 3 -4 9 -100 14 -213 6 -113 15 -238 21 -278 7 -46 9
-126 5 -224 -7 -153 -7 -153 17 -177 35 -35 88 -41 388 -41 276 0 305 4 297
43 -3 12 -41 14 -260 13 -300 -2 -377 4 -386 30 -4 10 -3 71 2 136 7 84 6 140
-3 198 -6 44 -16 166 -21 270 -5 105 -14 213 -19 240 -36 193 -46 716 -22
1175 9 171 14 645 16 1565 1 880 6 1415 15 1605 13 304 9 918 -9 1115 -5 61
-13 169 -17 241 l-6 131 178 6 c99 3 224 12 279 21 55 8 153 19 219 25 65 6
125 16 133 22 26 22 35 49 22 65 -16 20 -36 18 -48 -5z"/>
<path d="M9552 13141 c2 -7 7 -12 11 -12 12 1 9 15 -3 20 -7 2 -11 -2 -8 -8z"/>
<path d="M16040 11220 l0 -30 -457 -2 c-354 -2 -457 -6 -461 -15 -3 -10 93
-13 457 -13 l461 0 0 -35 0 -35 82 41 82 41 -74 39 c-41 21 -78 38 -82 39 -5
0 -8 -13 -8 -30z"/>
<path d="M22170 11220 l0 -30 -455 0 c-398 0 -455 -2 -455 -15 0 -13 57 -15
455 -15 l455 0 0 -35 0 -35 82 41 82 41 -74 39 c-41 21 -78 38 -82 39 -5 0 -8
-13 -8 -30z"/>
<path d="M1236 10758 c-33 -90 -61 -169 -64 -176 -3 -10 2 -13 18 -10 16 2 27
16 40 48 l18 45 70 3 70 3 17 -51 c14 -41 21 -50 41 -50 l23 0 -30 83 c-17 45
-45 123 -63 172 -28 77 -37 90 -57 93 -22 2 -28 -8 -83 -160z m112 29 c12 -33
22 -63 22 -68 0 -5 -25 -9 -55 -9 l-54 0 26 75 c15 41 30 72 33 68 4 -5 16
-34 28 -66z"/>
<path d="M5150 10745 l0 -175 25 0 c25 0 25 1 25 80 l0 80 95 0 95 0 0 -80 c0
-79 0 -80 25 -80 l25 0 0 175 0 175 -25 0 c-24 0 -25 -2 -25 -75 l0 -75 -95 0
-95 0 0 75 c0 73 -1 75 -25 75 l-25 0 0 -175z"/>
<path d="M5490 10900 c0 -18 7 -20 60 -20 l60 0 0 -155 c0 -148 1 -155 20
-155 19 0 20 7 20 155 l0 155 55 0 c48 0 55 2 55 20 0 19 -7 20 -135 20 -128
0 -135 -1 -135 -20z"/>
<path d="M5790 10900 c0 -18 7 -20 60 -20 l60 0 0 -155 c0 -148 1 -155 20
-155 19 0 20 7 20 155 l0 155 55 0 c48 0 55 2 55 20 0 19 -7 20 -135 20 -128
0 -135 -1 -135 -20z"/>
<path d="M6110 10745 l0 -175 25 0 c24 0 25 2 25 65 l0 65 60 0 c71 0 101 12
123 50 28 47 22 97 -17 136 -34 34 -35 34 -125 34 l-91 0 0 -175z m182 118
c25 -22 24 -84 -1 -107 -11 -10 -43 -20 -75 -23 l-56 -6 0 77 0 76 57 0 c38 0
62 -5 75 -17z"/>
<path d="M4868 10868 c-2 -25 -8 -34 -25 -36 -13 -2 -23 -10 -23 -17 0 -7 10
-15 23 -17 21 -3 22 -9 27 -106 5 -113 10 -122 68 -122 26 0 33 4 30 17 -2 9
-14 20 -28 23 -24 6 -25 9 -28 98 l-3 92 31 0 c20 0 30 5 30 15 0 10 -10 15
-30 15 -28 0 -30 3 -30 35 0 28 -4 35 -19 35 -15 0 -21 -8 -23 -32z"/>
<path d="M8088 10868 c-2 -25 -8 -34 -25 -36 -13 -2 -23 -10 -23 -17 0 -7 10
-15 23 -17 21 -3 22 -9 27 -106 5 -113 10 -122 68 -122 26 0 33 4 30 17 -2 9
-14 20 -28 23 -24 6 -25 9 -28 98 l-3 92 31 0 c20 0 30 5 30 15 0 10 -10 15
-30 15 -28 0 -30 3 -30 35 0 28 -4 35 -19 35 -15 0 -21 -8 -23 -32z"/>
<path d="M1587 10820 c-22 -18 -27 -19 -27 -6 0 9 -8 16 -20 16 -19 0 -20 -7
-20 -130 0 -123 1 -130 20 -130 19 0 20 7 20 90 0 83 2 93 25 115 13 14 36 25
50 25 20 0 26 4 23 18 -5 25 -40 26 -71 2z"/>
<path d="M1767 10820 c-22 -18 -27 -19 -27 -6 0 9 -8 16 -20 16 -19 0 -20 -7
-20 -130 0 -123 1 -130 20 -130 19 0 20 7 20 90 0 83 2 93 25 115 13 14 36 25
50 25 20 0 26 4 23 18 -5 25 -40 26 -71 2z"/>
<path d="M1923 10826 c-42 -19 -63 -62 -63 -132 0 -50 3 -59 34 -90 30 -30 40
-34 86 -34 67 0 105 34 115 104 17 113 -76 195 -172 152z m104 -48 c34 -32 33
-119 -2 -153 -60 -61 -135 0 -122 98 10 72 75 101 124 55z"/>
<path d="M2553 10826 c-44 -20 -60 -55 -42 -92 11 -22 28 -32 79 -48 47 -15
66 -26 68 -40 9 -43 -70 -62 -103 -26 -21 23 -55 27 -55 6 0 -28 50 -56 100
-56 63 0 100 28 100 75 0 36 -20 56 -70 70 -77 20 -98 43 -68 73 17 17 64 15
82 -4 9 -8 26 -14 38 -12 l21 3 -24 28 c-29 34 -81 43 -126 23z"/>
<path d="M2947 10820 c-22 -18 -27 -19 -27 -6 0 9 -8 16 -20 16 -19 0 -20 -7
-20 -130 0 -123 1 -130 20 -130 19 0 20 7 20 90 0 83 2 93 25 115 13 14 36 25
50 25 20 0 26 4 23 18 -5 25 -40 26 -71 2z"/>
<path d="M3103 10826 c-42 -19 -63 -62 -63 -132 0 -50 3 -59 34 -90 30 -30 41
-34 84 -34 35 0 57 6 76 21 52 41 21 68 -33 28 -21 -16 -36 -19 -59 -14 -36 7
-48 20 -57 58 l-7 27 96 0 c107 0 112 4 82 73 -27 65 -90 91 -153 63z m97 -46
c11 -11 20 -29 20 -40 0 -18 -7 -20 -70 -20 -79 0 -89 12 -45 55 29 30 68 32
95 5z"/>
<path d="M3420 10833 c-8 -3 -25 -15 -37 -26 l-23 -20 0 21 c0 15 -6 22 -20
22 -19 0 -20 -7 -20 -175 0 -168 1 -175 20 -175 18 0 20 7 20 67 l0 66 23 -21
c35 -33 100 -30 137 6 50 50 49 162 -3 210 -24 23 -72 35 -97 25z m65 -58 c20
-19 25 -34 25 -75 0 -41 -5 -56 -25 -75 -13 -14 -33 -25 -43 -25 -32 0 -71 38
-78 75 -18 97 60 162 121 100z"/>
<path d="M3677 10820 c-22 -18 -27 -19 -27 -6 0 9 -8 16 -20 16 -19 0 -20 -7
-20 -130 0 -123 1 -130 20 -130 19 0 20 7 20 90 0 83 2 93 25 115 13 14 36 25
50 25 20 0 26 4 23 18 -5 25 -40 26 -71 2z"/>
<path d="M3833 10826 c-42 -19 -63 -62 -63 -132 0 -50 3 -59 34 -90 30 -30 41
-34 84 -34 35 0 57 6 76 21 52 41 21 68 -33 28 -21 -16 -36 -19 -59 -14 -36 7
-48 20 -57 58 l-7 27 96 0 c107 0 112 4 82 73 -27 65 -90 91 -153 63z m97 -46
c11 -11 20 -29 20 -40 0 -18 -7 -20 -70 -20 -79 0 -89 12 -45 55 29 30 68 32
95 5z"/>
<path d="M4103 10826 c-44 -20 -60 -55 -42 -92 11 -22 28 -32 79 -48 47 -15
66 -26 68 -40 9 -43 -70 -62 -103 -26 -21 23 -55 27 -55 6 0 -28 50 -56 100
-56 63 0 100 28 100 75 0 36 -20 56 -70 70 -77 20 -98 43 -68 73 17 17 64 15
82 -4 9 -8 26 -14 38 -12 l21 3 -24 28 c-29 34 -81 43 -126 23z"/>
<path d="M4353 10826 c-42 -19 -63 -62 -63 -132 0 -50 3 -59 34 -90 30 -30 41
-34 84 -34 35 0 57 6 76 21 52 41 21 68 -33 28 -21 -16 -36 -19 -59 -14 -36 7
-48 20 -57 58 l-7 27 96 0 c107 0 112 4 82 73 -27 65 -90 91 -153 63z m97 -46
c11 -11 20 -29 20 -40 0 -18 -7 -20 -70 -20 -79 0 -89 12 -45 55 29 30 68 32
95 5z"/>
<path d="M4670 10833 c-8 -3 -23 -12 -32 -21 -16 -14 -18 -13 -18 1 0 10 -8
17 -20 17 -19 0 -20 -7 -20 -130 0 -123 1 -130 20 -130 18 0 20 7 20 89 0 102
19 141 69 141 50 0 61 -25 61 -133 0 -90 1 -97 20 -97 19 0 20 7 20 106 0 58
-4 114 -10 124 -15 28 -75 46 -110 33z"/>
<path d="M6607 10820 c-22 -18 -27 -19 -27 -6 0 9 -8 16 -20 16 -19 0 -20 -7
-20 -130 0 -123 1 -130 20 -130 19 0 20 7 20 90 0 83 2 93 25 115 13 14 36 25
50 25 20 0 26 4 23 18 -5 25 -40 26 -71 2z"/>
<path d="M6763 10826 c-42 -19 -63 -62 -63 -132 0 -50 3 -59 34 -90 30 -30 41
-34 84 -34 35 0 57 6 76 21 52 41 21 68 -33 28 -21 -16 -36 -19 -59 -14 -36 7
-48 20 -57 58 l-7 27 96 0 c107 0 112 4 82 73 -27 65 -90 91 -153 63z m97 -46
c11 -11 20 -29 20 -40 0 -18 -7 -20 -70 -20 -79 0 -89 12 -45 55 29 30 68 32
95 5z"/>
<path d="M7038 10824 c-38 -20 -58 -63 -58 -124 0 -56 20 -104 49 -120 29 -15
93 -12 119 6 l22 15 0 -60 c0 -54 2 -61 20 -61 19 0 20 7 20 175 0 168 -1 175
-20 175 -11 0 -20 -7 -20 -15 0 -12 -6 -11 -32 5 -39 24 -63 25 -100 4z m107
-49 c19 -19 25 -35 25 -70 0 -57 -13 -83 -47 -96 -61 -23 -111 33 -100 114 10
73 74 101 122 52z"/>
<path d="M7613 10826 c-42 -19 -63 -62 -63 -132 0 -50 3 -59 34 -90 30 -30 41
-34 84 -34 35 0 57 6 76 21 52 41 21 68 -33 28 -21 -16 -36 -19 -59 -14 -36 7
-48 20 -57 58 l-7 27 96 0 c107 0 112 4 82 73 -27 65 -90 91 -153 63z m97 -46
c11 -11 20 -29 20 -40 0 -18 -7 -20 -70 -20 -79 0 -89 12 -45 55 29 30 68 32
95 5z"/>
<path d="M7873 10826 c-44 -20 -60 -55 -42 -92 11 -22 28 -32 79 -48 47 -15
66 -26 68 -40 9 -43 -70 -62 -103 -26 -21 23 -55 27 -55 6 0 -28 50 -56 100
-56 63 0 100 28 100 75 0 36 -20 56 -70 70 -77 20 -98 43 -68 73 17 17 64 15
82 -4 9 -8 26 -14 38 -12 l21 3 -24 28 c-29 34 -81 43 -126 23z"/>
<path d="M8283 10826 c-44 -20 -60 -55 -42 -92 11 -22 28 -32 79 -48 47 -15
66 -26 68 -40 9 -43 -70 -62 -103 -26 -21 23 -55 27 -55 6 0 -28 50 -56 100
-56 63 0 100 28 100 75 0 36 -20 56 -70 70 -77 20 -98 43 -68 73 17 17 64 15
82 -4 9 -8 26 -14 38 -12 l21 3 -24 28 c-29 34 -81 43 -126 23z"/>
<path d="M2120 10824 c0 -6 47 -177 61 -222 9 -26 16 -32 32 -30 17 2 26 20
48 96 15 51 29 95 31 98 3 2 17 -41 33 -96 24 -89 30 -100 50 -100 18 0 25 8
34 43 6 23 22 82 35 130 l24 88 -21 -3 c-18 -3 -25 -18 -45 -101 -15 -61 -28
-94 -33 -86 -4 7 -18 53 -31 101 -20 76 -25 88 -44 88 -19 0 -25 -13 -50 -100
-15 -55 -31 -97 -35 -93 -4 5 -12 33 -18 63 -23 111 -31 130 -51 130 -11 0
-20 -2 -20 -6z"/>
<path d="M7280 10722 c0 -100 2 -110 23 -130 31 -29 99 -30 127 -2 l20 20 0
-20 c0 -13 7 -20 20 -20 19 0 20 7 20 130 0 123 -1 130 -20 130 -19 0 -20 -7
-20 -90 0 -83 -2 -93 -25 -115 -28 -29 -51 -31 -83 -9 -20 14 -22 23 -22 115
0 92 -1 99 -20 99 -19 0 -20 -7 -20 -108z"/>
<path d="M15213 8302 c-40 -20 -73 -39 -73 -42 0 -5 145 -80 155 -80 3 0 5 16
5 35 l0 35 450 0 c293 0 450 3 450 10 0 7 -157 10 -450 10 l-450 0 0 35 c0 19
-3 35 -7 34 -5 0 -41 -17 -80 -37z"/>
<path d="M21345 8298 l-79 -40 74 -39 c41 -21 78 -38 83 -39 4 0 7 16 7 35 l0
35 450 0 c293 0 450 3 450 10 0 7 -156 10 -449 10 l-450 0 -3 34 -3 34 -80
-40z"/>
<path d="M9471 7597 c-37 -18 -65 -62 -63 -99 0 -18 3 -127 7 -243 4 -135 1
-318 -8 -511 -13 -257 -13 -337 -1 -545 7 -134 18 -392 24 -574 6 -181 15
-354 20 -384 5 -30 14 -118 20 -195 25 -350 40 -588 50 -796 6 -124 18 -325
26 -446 8 -130 14 -386 14 -615 1 -340 4 -411 20 -519 51 -324 57 -1210 9
-1402 -10 -42 -19 -95 -19 -117 0 -62 21 -77 121 -84 46 -4 141 -15 210 -24
133 -17 159 -15 159 15 0 17 -18 21 -167 41 -93 11 -188 22 -213 24 -44 2 -45
3 -48 38 -2 21 4 64 12 97 9 33 16 99 16 147 0 48 5 153 11 234 16 192 -4 800
-32 1010 -16 120 -19 208 -19 525 0 209 -5 440 -10 511 -5 72 -17 258 -25 415
-8 157 -22 377 -30 490 -8 113 -19 279 -25 370 -6 91 -17 228 -25 305 -8 77
-19 300 -24 495 -6 195 -16 424 -22 509 -9 127 -8 218 6 510 16 329 16 602 -1
696 -4 22 0 38 14 55 l20 24 123 -12 c68 -7 186 -12 262 -12 118 0 139 2 144
16 13 35 -23 44 -176 43 -80 0 -180 4 -221 10 -98 14 -130 13 -159 -2z"/>
<path d="M11358 6508 l-3 -963 -32 -3 -32 -3 37 -75 c20 -41 39 -74 42 -74 3
0 22 33 42 73 l37 72 -30 3 -29 3 0 965 c0 849 -2 964 -15 964 -13 0 -15 -116
-17 -962z"/>
<path d="M17610 6505 l0 -965 -30 0 c-16 0 -30 -3 -30 -7 1 -5 18 -42 39 -83
l39 -74 41 82 41 82 -35 0 -35 0 0 965 c0 851 -2 965 -15 965 -13 0 -15 -114
-15 -965z"/>
<path d="M23868 6508 l-3 -963 -32 -3 -33 -3 41 -82 41 -81 39 74 c21 41 38
78 39 83 0 4 -13 7 -30 7 l-30 0 0 965 c0 850 -2 965 -15 965 -13 0 -15 -116
-17 -962z"/>
<path d="M26137 7395 c-20 -42 -37 -80 -37 -85 0 -6 14 -10 30 -10 l30 0 0
-960 c0 -847 2 -960 15 -960 13 0 15 113 15 960 l0 960 30 0 c18 0 30 5 30 13
0 13 -66 157 -72 157 -2 0 -20 -34 -41 -75z"/>
<path d="M13825 7390 c-19 -38 -35 -74 -35 -80 0 -5 14 -10 30 -10 l30 0 0
-960 c0 -847 2 -960 15 -960 13 0 15 113 15 960 l0 960 30 0 c17 0 30 5 30 10
0 13 -69 150 -75 150 -3 0 -21 -31 -40 -70z"/>
<path d="M19977 7385 c-20 -42 -37 -78 -37 -80 0 -3 16 -5 35 -5 l35 0 0 -960
c0 -633 3 -960 10 -960 7 0 10 327 10 960 l0 960 35 0 c19 0 35 2 35 5 0 10
-75 155 -80 155 -3 0 -22 -34 -43 -75z"/>
<path d="M11079 5219 c-251 -27 -446 -181 -524 -412 -44 -133 -46 -215 -42
-1762 3 -1316 5 -1456 20 -1519 55 -228 211 -396 427 -460 103 -31 329 -36
1650 -36 1319 0 1546 5 1650 36 160 47 298 162 370 306 80 164 75 44 75 1763
0 1412 -1 1536 -17 1604 -54 231 -225 405 -458 468 -60 16 -172 17 -1570 19
-828 1 -1539 -2 -1581 -7z m3041 -29 c52 -6 118 -17 145 -26 198 -64 344 -225
393 -435 16 -68 17 -192 17 -1599 0 -1693 4 -1589 -66 -1736 -48 -99 -161
-212 -260 -259 -153 -72 -59 -68 -1598 -72 -1420 -4 -1673 0 -1781 33 -92 27
-166 71 -241 141 -57 54 -79 84 -114 157 -28 58 -49 118 -57 166 -10 59 -13
400 -13 1585 0 1384 1 1516 17 1582 36 155 119 279 241 361 89 59 175 90 283
101 116 12 2918 13 3034 1z"/>
<path d="M11690 3578 c-53 -37 -73 -71 -78 -135 -6 -81 11 -135 53 -172 62
-54 152 -53 210 2 18 18 36 42 40 55 10 35 -40 30 -75 -8 -30 -32 -82 -41
-119 -20 -21 11 -51 78 -51 113 0 83 54 144 115 131 34 -7 65 -31 65 -51 0 -8
12 -13 35 -13 41 0 43 6 12 51 -45 68 -143 90 -207 47z"/>
<path d="M11980 3415 l0 -175 35 0 35 0 0 60 0 60 55 0 c95 0 135 36 135 121
0 33 -6 47 -34 75 -34 34 -34 34 -130 34 l-96 0 0 -175z m180 105 c24 -24 26
-57 4 -88 -12 -18 -25 -22 -65 -22 l-49 0 0 65 0 65 45 0 c32 0 51 -6 65 -20z"/>
<path d="M12290 3415 l0 -175 35 0 35 0 0 60 0 60 55 0 c95 0 135 36 135 121
0 33 -6 47 -34 75 -34 34 -34 34 -130 34 l-96 0 0 -175z m180 105 c24 -24 26
-57 4 -88 -12 -18 -25 -22 -65 -22 l-49 0 0 65 0 65 45 0 c32 0 51 -6 65 -20z"/>
<path d="M12644 3500 c-25 -10 -56 -49 -48 -62 9 -14 51 -9 64 8 9 10 26 14
49 12 30 -3 36 -7 39 -29 3 -25 1 -27 -59 -33 -99 -12 -141 -75 -84 -131 29
-29 88 -34 123 -9 20 14 22 14 22 0 0 -11 10 -16 30 -16 l30 0 0 104 c0 57 -3
112 -6 121 -15 37 -106 57 -160 35z m106 -165 c0 -35 -43 -61 -78 -49 -55 19
-18 73 51 74 22 0 27 -4 27 -25z"/>
<path d="M12850 3504 c0 -3 13 -24 29 -47 54 -81 55 -85 28 -125 -13 -20 -32
-49 -41 -64 l-18 -28 31 0 c26 0 36 7 60 47 l29 47 29 -47 c24 -41 32 -47 61
-47 24 0 31 4 26 13 -4 6 -23 35 -41 64 -18 29 -33 55 -33 58 0 4 13 25 29 48
15 23 33 52 40 65 11 21 10 22 -19 22 -25 0 -35 -7 -58 -45 -15 -25 -29 -45
-32 -45 -3 0 -17 21 -32 45 -23 37 -32 45 -58 45 -16 0 -30 -3 -30 -6z"/>
<path d="M13181 3497 c-43 -22 -65 -63 -65 -121 0 -87 47 -138 129 -138 56 0
92 22 111 67 30 71 9 156 -45 188 -34 20 -96 22 -130 4z m102 -55 c62 -69 -2
-196 -72 -144 -32 24 -41 100 -16 138 19 29 64 32 88 6z"/>
<path d="M13442 3485 c-60 -50 -30 -112 67 -135 29 -7 55 -19 58 -26 14 -38
-59 -60 -91 -28 -10 9 -29 14 -48 12 l-33 -3 32 -32 c27 -29 38 -33 83 -33 55
0 104 19 114 45 20 54 -12 97 -81 110 -74 14 -96 45 -48 67 19 9 29 8 49 -6
31 -20 76 -21 76 -3 0 27 -40 50 -93 55 -46 4 -57 1 -85 -23z"/>
<path d="M11932 3003 c-39 -19 -54 -44 -54 -90 0 -44 33 -80 86 -94 23 -6 55
-16 73 -21 54 -16 55 -68 3 -87 -37 -13 -96 3 -110 29 -15 28 -60 27 -60 -1 0
-34 51 -76 102 -84 97 -15 168 31 168 107 0 52 -31 81 -101 98 -95 22 -126 60
-77 94 32 23 65 20 94 -9 15 -15 36 -25 54 -25 30 0 30 0 17 31 -25 61 -123
88 -195 52z"/>
<path d="M12251 2917 c-64 -32 -87 -135 -46 -204 23 -40 53 -53 116 -53 44 0
55 4 82 32 l32 33 -24 3 c-13 2 -42 -4 -63 -14 -36 -16 -43 -16 -67 -3 -16 9
-27 25 -29 42 l-3 27 90 0 c91 0 91 0 91 25 0 94 -97 154 -179 112z m101 -54
c34 -31 23 -43 -42 -43 -45 0 -60 3 -60 14 0 41 67 61 102 29z"/>
<path d="M12480 2795 l0 -135 30 0 30 0 0 94 c0 102 4 111 58 122 25 5 32 12
32 30 0 19 -5 24 -25 24 -14 0 -34 -9 -44 -19 -19 -19 -19 -19 -24 0 -3 13
-14 19 -31 19 l-26 0 0 -135z"/>
<path d="M12660 2918 c0 -7 20 -67 44 -133 43 -119 43 -120 77 -123 l34 -3 43
123 c23 68 43 128 42 133 0 6 -12 10 -27 10 -26 0 -29 -5 -59 -105 l-32 -105
-33 108 c-31 103 -33 107 -61 107 -16 0 -28 -5 -28 -12z"/>
<path d="M12991 2917 c-64 -32 -87 -135 -46 -204 23 -40 53 -53 116 -53 44 0
55 4 82 32 l32 33 -24 3 c-13 2 -42 -4 -63 -14 -36 -16 -43 -16 -67 -3 -16 9
-27 25 -29 42 l-3 27 90 0 c91 0 91 0 91 25 0 94 -97 154 -179 112z m101 -54
c34 -31 23 -43 -42 -43 -45 0 -60 3 -60 14 0 41 67 61 102 29z"/>
<path d="M13220 2795 l0 -135 30 0 30 0 0 94 c0 102 4 111 58 122 25 5 32 12
32 30 0 19 -5 24 -25 24 -14 0 -34 -9 -44 -19 -19 -19 -19 -19 -24 0 -3 13
-14 19 -31 19 l-26 0 0 -135z"/>
<path d="M17200 5219 c-296 -35 -511 -246 -550 -540 -17 -129 -8 -3097 9
-3164 23 -89 88 -210 146 -274 123 -132 253 -187 478 -201 185 -12 2719 -12
2904 0 164 10 270 40 365 104 118 78 216 216 255 357 17 60 18 165 18 1629 0
1468 -1 1569 -18 1629 -58 213 -205 368 -412 434 -27 9 -90 21 -140 27 -111
12 -2946 11 -3055 -1z m3148 -42 c217 -59 381 -224 433 -437 12 -45 14 -333
14 -1610 0 -1454 -1 -1559 -18 -1619 -54 -197 -195 -347 -385 -411 -106 -35
-296 -39 -1657 -39 -1361 0 -1551 4 -1657 39 -190 64 -331 214 -385 411 -17
60 -18 165 -18 1619 0 1454 1 1559 18 1620 29 108 75 188 152 266 103 105 214
157 370 174 39 4 745 7 1570 6 1375 -2 1505 -3 1563 -19z"/>
<path d="M17820 3578 c-53 -37 -73 -71 -78 -135 -6 -81 11 -135 53 -172 62
-54 152 -53 210 2 18 18 36 42 40 55 10 35 -40 30 -75 -8 -30 -32 -82 -41
-119 -20 -21 11 -51 78 -51 113 0 83 54 144 115 131 34 -7 65 -31 65 -51 0 -8
12 -13 35 -13 41 0 43 6 12 51 -45 68 -143 90 -207 47z"/>
<path d="M18100 3415 l0 -175 35 0 35 0 0 60 0 60 55 0 c95 0 135 36 135 121
0 33 -6 47 -34 75 -34 34 -34 34 -130 34 l-96 0 0 -175z m180 105 c24 -24 26
-57 4 -88 -12 -18 -25 -22 -65 -22 l-49 0 0 65 0 65 45 0 c32 0 51 -6 65 -20z"/>
<path d="M18420 3415 l0 -175 35 0 35 0 0 60 0 60 55 0 c95 0 135 36 135 121
0 33 -6 47 -34 75 -34 34 -34 34 -130 34 l-96 0 0 -175z m180 105 c24 -24 26
-57 4 -88 -12 -18 -25 -22 -65 -22 l-49 0 0 65 0 65 45 0 c32 0 51 -6 65 -20z"/>
<path d="M18764 3500 c-25 -10 -56 -49 -48 -62 9 -14 51 -9 64 8 9 10 26 14
49 12 30 -3 36 -7 39 -29 3 -25 1 -27 -59 -33 -99 -12 -141 -75 -84 -131 29
-29 88 -34 123 -9 20 14 22 14 22 0 0 -11 10 -16 30 -16 l30 0 0 104 c0 57 -3
112 -6 121 -15 37 -106 57 -160 35z m106 -165 c0 -35 -43 -61 -78 -49 -55 19
-18 73 51 74 22 0 27 -4 27 -25z"/>
<path d="M18980 3504 c0 -3 13 -24 29 -47 54 -81 55 -85 28 -125 -13 -20 -32
-49 -41 -64 l-18 -28 31 0 c26 0 36 7 60 47 l29 47 29 -47 c24 -41 32 -47 61
-47 24 0 31 4 26 13 -4 6 -23 35 -41 64 -18 29 -33 55 -33 58 0 4 13 25 29 48
15 23 33 52 40 65 11 21 10 22 -19 22 -25 0 -35 -7 -58 -45 -15 -25 -29 -45
-32 -45 -3 0 -17 21 -32 45 -23 37 -32 45 -58 45 -16 0 -30 -3 -30 -6z"/>
<path d="M19301 3497 c-43 -22 -65 -63 -65 -121 0 -87 47 -138 129 -138 56 0
92 22 111 67 30 71 9 156 -45 188 -34 20 -96 22 -130 4z m102 -55 c62 -69 -2
-196 -72 -144 -32 24 -41 100 -16 138 19 29 64 32 88 6z"/>
<path d="M19562 3485 c-60 -50 -30 -112 67 -135 29 -7 55 -19 58 -26 14 -38
-59 -60 -91 -28 -10 9 -29 14 -48 12 l-33 -3 32 -32 c27 -29 38 -33 83 -33 55
0 104 19 114 45 20 54 -12 97 -81 110 -74 14 -96 45 -48 67 19 9 29 8 49 -6
31 -20 76 -21 76 -3 0 27 -40 50 -93 55 -46 4 -57 1 -85 -23z"/>
<path d="M18062 3003 c-39 -19 -54 -44 -54 -90 0 -44 33 -80 86 -94 23 -6 55
-16 73 -21 54 -16 55 -68 3 -87 -37 -13 -96 3 -110 29 -15 28 -60 27 -60 -1 0
-34 51 -76 102 -84 97 -15 168 31 168 107 0 52 -31 81 -101 98 -95 22 -126 60
-77 94 32 23 65 20 94 -9 15 -15 36 -25 54 -25 30 0 30 0 17 31 -25 61 -123
88 -195 52z"/>
<path d="M18381 2917 c-64 -32 -87 -135 -46 -204 23 -40 53 -53 116 -53 44 0
55 4 82 32 l32 33 -24 3 c-13 2 -42 -4 -63 -14 -36 -16 -43 -16 -67 -3 -16 9
-27 25 -29 42 l-3 27 90 0 c91 0 91 0 91 25 0 94 -97 154 -179 112z m101 -54
c34 -31 23 -43 -42 -43 -45 0 -60 3 -60 14 0 41 67 61 102 29z"/>
<path d="M18610 2795 l0 -135 30 0 30 0 0 94 c0 102 4 111 58 122 25 5 32 12
32 30 0 19 -5 24 -25 24 -14 0 -34 -9 -44 -19 -19 -19 -19 -19 -24 0 -3 13
-14 19 -31 19 l-26 0 0 -135z"/>
<path d="M18790 2918 c0 -7 20 -67 44 -133 43 -119 43 -120 77 -123 l34 -3 43
123 c23 68 43 128 42 133 0 6 -12 10 -27 10 -26 0 -29 -5 -59 -105 l-32 -105
-33 108 c-31 103 -33 107 -61 107 -16 0 -28 -5 -28 -12z"/>
<path d="M19121 2917 c-64 -32 -87 -135 -46 -204 23 -40 53 -53 116 -53 44 0
55 4 82 32 l32 33 -24 3 c-13 2 -42 -4 -63 -14 -36 -16 -43 -16 -67 -3 -16 9
-27 25 -29 42 l-3 27 90 0 c91 0 91 0 91 25 0 94 -97 154 -179 112z m101 -54
c34 -31 23 -43 -42 -43 -45 0 -60 3 -60 14 0 41 67 61 102 29z"/>
<path d="M19350 2795 l0 -135 30 0 30 0 0 94 c0 102 4 111 58 122 25 5 32 12
32 30 0 19 -5 24 -25 24 -14 0 -34 -9 -44 -19 -19 -19 -19 -19 -24 0 -3 13
-14 19 -31 19 l-26 0 0 -135z"/>
<path d="M23329 5219 c-251 -27 -446 -181 -524 -412 -44 -133 -46 -215 -42
-1762 3 -1316 5 -1456 20 -1519 55 -228 211 -396 427 -460 103 -31 329 -36
1650 -36 1319 0 1546 5 1650 36 160 47 298 162 370 306 80 164 75 44 75 1763
0 1412 -1 1536 -17 1604 -54 231 -225 405 -458 468 -60 16 -172 17 -1570 19
-828 1 -1539 -2 -1581 -7z m3041 -29 c52 -6 118 -17 145 -26 198 -64 344 -225
393 -435 16 -68 17 -192 17 -1599 0 -1693 4 -1589 -66 -1736 -48 -99 -161
-212 -260 -259 -153 -72 -59 -68 -1598 -72 -1420 -4 -1673 0 -1781 33 -92 27
-166 71 -241 141 -57 54 -79 84 -114 157 -28 58 -49 118 -57 166 -10 59 -13
400 -13 1585 0 1384 1 1516 17 1582 36 155 119 279 241 361 89 59 175 90 283
101 116 12 2918 13 3034 1z"/>
<path d="M23940 3578 c-53 -37 -73 -71 -78 -135 -6 -81 11 -135 53 -172 62
-54 152 -53 210 2 18 18 36 42 40 55 10 35 -40 30 -75 -8 -30 -32 -82 -41
-119 -20 -21 11 -51 78 -51 113 0 83 54 144 115 131 34 -7 65 -31 65 -51 0 -8
12 -13 35 -13 41 0 43 6 12 51 -45 68 -143 90 -207 47z"/>
<path d="M24230 3415 l0 -175 35 0 35 0 0 60 0 60 55 0 c95 0 135 36 135 121
0 33 -6 47 -34 75 -34 34 -34 34 -130 34 l-96 0 0 -175z m180 105 c24 -24 26
-57 4 -88 -12 -18 -25 -22 -65 -22 l-49 0 0 65 0 65 45 0 c32 0 51 -6 65 -20z"/>
<path d="M24540 3415 l0 -175 35 0 35 0 0 60 0 60 55 0 c95 0 135 36 135 121
0 33 -6 47 -34 75 -34 34 -34 34 -130 34 l-96 0 0 -175z m180 105 c24 -24 26
-57 4 -88 -12 -18 -25 -22 -65 -22 l-49 0 0 65 0 65 45 0 c32 0 51 -6 65 -20z"/>
<path d="M24894 3500 c-25 -10 -56 -49 -48 -62 9 -14 51 -9 64 8 9 10 26 14
49 12 30 -3 36 -7 39 -29 3 -25 1 -27 -59 -33 -99 -12 -141 -75 -84 -131 29
-29 88 -34 123 -9 20 14 22 14 22 0 0 -11 10 -16 30 -16 l30 0 0 104 c0 57 -3
112 -6 121 -15 37 -106 57 -160 35z m106 -165 c0 -35 -43 -61 -78 -49 -55 19
-18 73 51 74 22 0 27 -4 27 -25z"/>
<path d="M25100 3504 c0 -3 13 -24 29 -47 54 -81 55 -85 28 -125 -13 -20 -32
-49 -41 -64 l-18 -28 31 0 c26 0 36 7 60 47 l29 47 29 -47 c24 -41 32 -47 61
-47 24 0 31 4 26 13 -4 6 -23 35 -41 64 -18 29 -33 55 -33 58 0 4 13 25 29 48
15 23 33 52 40 65 11 21 10 22 -19 22 -25 0 -35 -7 -58 -45 -15 -25 -29 -45
-32 -45 -3 0 -17 21 -32 45 -23 37 -32 45 -58 45 -16 0 -30 -3 -30 -6z"/>
<path d="M25431 3497 c-43 -22 -65 -63 -65 -121 0 -87 47 -138 129 -138 56 0
92 22 111 67 30 71 9 156 -45 188 -34 20 -96 22 -130 4z m102 -55 c62 -69 -2
-196 -72 -144 -32 24 -41 100 -16 138 19 29 64 32 88 6z"/>
<path d="M25692 3485 c-60 -50 -30 -112 67 -135 29 -7 55 -19 58 -26 14 -38
-59 -60 -91 -28 -10 9 -29 14 -48 12 l-33 -3 32 -32 c27 -29 38 -33 83 -33 55
0 104 19 114 45 20 54 -12 97 -81 110 -74 14 -96 45 -48 67 19 9 29 8 49 -6
31 -20 76 -21 76 -3 0 27 -40 50 -93 55 -46 4 -57 1 -85 -23z"/>
<path d="M24182 3003 c-39 -19 -54 -44 -54 -90 0 -44 33 -80 86 -94 23 -6 55
-16 73 -21 54 -16 55 -68 3 -87 -37 -13 -96 3 -110 29 -15 28 -60 27 -60 -1 0
-34 51 -76 102 -84 97 -15 168 31 168 107 0 52 -31 81 -101 98 -95 22 -126 60
-77 94 32 23 65 20 94 -9 15 -15 36 -25 54 -25 30 0 30 0 17 31 -25 61 -123
88 -195 52z"/>
<path d="M24501 2917 c-64 -32 -87 -135 -46 -204 23 -40 53 -53 116 -53 44 0
55 4 82 32 l32 33 -24 3 c-13 2 -42 -4 -63 -14 -36 -16 -43 -16 -67 -3 -16 9
-27 25 -29 42 l-3 27 90 0 c91 0 91 0 91 25 0 94 -97 154 -179 112z m101 -54
c34 -31 23 -43 -42 -43 -45 0 -60 3 -60 14 0 41 67 61 102 29z"/>
<path d="M24730 2795 l0 -135 30 0 30 0 0 94 c0 102 4 111 58 122 25 5 32 12
32 30 0 19 -5 24 -25 24 -14 0 -34 -9 -44 -19 -19 -19 -19 -19 -24 0 -3 13
-14 19 -31 19 l-26 0 0 -135z"/>
<path d="M24910 2918 c0 -7 20 -67 44 -133 43 -119 43 -120 77 -123 l34 -3 43
123 c23 68 43 128 42 133 0 6 -12 10 -27 10 -26 0 -29 -5 -59 -105 l-32 -105
-33 108 c-31 103 -33 107 -61 107 -16 0 -28 -5 -28 -12z"/>
<path d="M25241 2917 c-64 -32 -87 -135 -46 -204 23 -40 53 -53 116 -53 44 0
55 4 82 32 l32 33 -24 3 c-13 2 -42 -4 -63 -14 -36 -16 -43 -16 -67 -3 -16 9
-27 25 -29 42 l-3 27 90 0 c91 0 91 0 91 25 0 94 -97 154 -179 112z m101 -54
c34 -31 23 -43 -42 -43 -45 0 -60 3 -60 14 0 41 67 61 102 29z"/>
<path d="M25470 2795 l0 -135 30 0 30 0 0 94 c0 102 4 111 58 122 25 5 32 12
32 30 0 19 -5 24 -25 24 -14 0 -34 -9 -44 -19 -19 -19 -19 -19 -24 0 -3 13
-14 19 -31 19 l-26 0 0 -135z"/>
<path d="M22160 4700 l0 -30 -455 0 c-398 0 -455 -2 -455 -15 0 -13 57 -15
455 -15 l455 0 0 -28 c0 -16 3 -31 6 -35 4 -3 43 12 87 35 l81 40 -74 39 c-41
21 -81 38 -87 39 -8 0 -13 -12 -13 -30z"/>
<path d="M16050 4635 l0 -35 -461 0 c-364 0 -460 -3 -457 -12 4 -10 107 -14
461 -16 l457 -2 0 -30 c0 -17 3 -30 8 -30 4 1 41 18 82 39 l74 39 -82 41 -82
41 0 -35z"/>
<path d="M7070 3260 l0 -70 -32 20 c-40 24 -60 25 -98 5 -40 -20 -60 -63 -60
-125 0 -56 20 -104 49 -120 33 -17 95 -12 119 10 l22 21 0 -21 c0 -13 7 -20
20 -20 19 0 20 7 20 185 0 178 -1 185 -20 185 -18 0 -20 -7 -20 -70z m-25 -95
c19 -19 25 -35 25 -70 0 -56 -13 -83 -46 -95 -63 -24 -110 27 -101 109 9 77
73 106 122 56z"/>
<path d="M7869 3297 c-19 -12 -44 -42 -57 -67 -42 -80 -18 -202 48 -252 61
-45 173 -26 211 36 24 40 24 46 -4 46 -16 0 -28 -9 -35 -24 -16 -35 -80 -54
-123 -36 -46 19 -69 64 -69 133 0 133 96 193 177 112 21 -21 44 -35 55 -33 18
3 18 4 0 37 -37 69 -137 92 -203 48z"/>
<path d="M2986 3148 c-33 -90 -61 -169 -64 -176 -3 -10 2 -13 18 -10 16 2 27
16 40 48 l18 45 70 3 70 3 17 -51 c14 -41 21 -50 41 -50 l23 0 -30 83 c-17 45
-45 123 -63 172 -28 77 -37 90 -57 93 -22 2 -28 -8 -83 -160z m112 29 c12 -33
22 -63 22 -68 0 -5 -25 -9 -55 -9 l-54 0 26 75 c15 41 30 72 33 68 4 -5 16
-34 28 -66z"/>
<path d="M7190 3136 l0 -176 25 0 c24 0 25 2 25 70 l0 70 43 0 c42 0 42 0 80
-70 32 -58 42 -70 63 -70 l25 0 -40 73 -41 74 24 13 c50 26 62 110 22 157 -23
27 -29 28 -125 31 l-101 4 0 -176z m180 124 c35 -19 33 -88 -4 -112 -6 -4 -37
-8 -68 -8 l-58 0 0 65 0 65 56 0 c30 0 64 -4 74 -10z"/>
<path d="M7500 3135 l0 -175 25 0 c24 0 25 2 25 65 l0 65 60 0 c71 0 101 12
123 50 28 47 22 97 -17 136 -34 34 -35 34 -125 34 l-91 0 0 -175z m182 118
c25 -22 24 -84 -1 -107 -11 -10 -43 -20 -75 -23 l-56 -6 0 77 0 76 57 0 c38 0
62 -5 75 -17z"/>
<path d="M8167 3288 c-3 -13 -9 -44 -12 -70 -6 -40 -5 -48 8 -48 11 0 20 15
27 43 6 23 15 54 20 70 8 24 7 27 -14 27 -16 0 -26 -7 -29 -22z"/>
<path d="M6618 3258 c-2 -25 -8 -34 -25 -36 -13 -2 -23 -10 -23 -17 0 -7 10
-15 23 -17 21 -3 22 -9 27 -106 5 -113 10 -122 68 -122 26 0 33 4 30 17 -2 9
-14 20 -28 23 -24 6 -25 9 -28 98 l-3 92 31 0 c20 0 30 5 30 15 0 10 -10 15
-30 15 -28 0 -30 3 -30 35 0 28 -4 35 -19 35 -15 0 -21 -8 -23 -32z"/>
<path d="M3327 3210 c-22 -18 -27 -19 -27 -6 0 9 -8 16 -20 16 -19 0 -20 -7
-20 -130 0 -123 1 -130 20 -130 19 0 20 7 20 90 0 83 2 93 25 115 13 14 36 25
50 25 20 0 26 4 23 18 -5 25 -40 26 -71 2z"/>
<path d="M3507 3210 c-22 -18 -27 -19 -27 -6 0 9 -8 16 -20 16 -19 0 -20 -7
-20 -130 0 -123 1 -130 20 -130 19 0 20 7 20 90 0 83 2 93 25 115 13 14 36 25
50 25 20 0 26 4 23 18 -5 25 -40 26 -71 2z"/>
<path d="M3663 3216 c-42 -19 -63 -62 -63 -132 0 -50 3 -59 34 -90 30 -30 40
-34 86 -34 67 0 105 34 115 104 17 113 -76 195 -172 152z m104 -48 c34 -32 33
-119 -2 -153 -60 -61 -135 0 -122 98 10 72 75 101 124 55z"/>
<path d="M4293 3216 c-44 -20 -60 -55 -42 -92 11 -22 28 -32 79 -48 47 -15 66
-26 68 -40 9 -43 -70 -62 -103 -26 -21 23 -55 27 -55 6 0 -28 50 -56 100 -56
63 0 100 28 100 75 0 36 -20 56 -70 70 -77 20 -98 43 -68 73 17 17 64 15 82
-4 9 -8 26 -14 38 -12 l21 3 -24 28 c-29 34 -81 43 -126 23z"/>
<path d="M4687 3210 c-22 -18 -27 -19 -27 -6 0 9 -8 16 -20 16 -19 0 -20 -7
-20 -130 0 -123 1 -130 20 -130 19 0 20 7 20 90 0 83 2 93 25 115 13 14 36 25
50 25 20 0 26 4 23 18 -5 25 -40 26 -71 2z"/>
<path d="M4843 3216 c-42 -19 -63 -62 -63 -132 0 -50 3 -59 34 -90 30 -30 41
-34 84 -34 35 0 57 6 76 21 52 41 21 68 -33 28 -21 -16 -36 -19 -59 -14 -36 7
-48 20 -57 58 l-7 27 96 0 c107 0 112 4 82 73 -27 65 -90 91 -153 63z m97 -46
c11 -11 20 -29 20 -40 0 -18 -7 -20 -70 -20 -79 0 -89 12 -45 55 29 30 68 32
95 5z"/>
<path d="M5170 3223 c-8 -3 -25 -15 -37 -26 l-23 -20 0 21 c0 15 -6 22 -20 22
-19 0 -20 -7 -20 -175 0 -168 1 -175 20 -175 18 0 20 7 20 67 l0 66 23 -21
c35 -33 100 -30 137 6 50 50 49 162 -3 210 -24 23 -72 35 -97 25z m69 -59 c31
-39 29 -117 -4 -149 -29 -30 -54 -31 -88 -5 -28 23 -43 74 -33 115 16 65 88
87 125 39z"/>
<path d="M5427 3210 c-22 -18 -27 -19 -27 -6 0 9 -8 16 -20 16 -19 0 -20 -7
-20 -130 0 -123 1 -130 20 -130 19 0 20 7 20 90 0 83 2 93 25 115 13 14 36 25
50 25 20 0 26 4 23 18 -5 25 -40 26 -71 2z"/>
<path d="M5583 3216 c-42 -19 -63 -62 -63 -132 0 -50 3 -59 34 -90 30 -30 41
-34 84 -34 35 0 57 6 76 21 52 41 21 68 -33 28 -21 -16 -36 -19 -59 -14 -36 7
-48 20 -57 58 l-7 27 96 0 c107 0 112 4 82 73 -27 65 -90 91 -153 63z m97 -46
c11 -11 20 -29 20 -40 0 -18 -7 -20 -70 -20 -79 0 -89 12 -45 55 29 30 68 32
95 5z"/>
<path d="M5843 3216 c-44 -20 -60 -55 -42 -92 11 -22 28 -32 79 -48 47 -15 66
-26 68 -40 9 -43 -70 -62 -103 -26 -21 23 -55 27 -55 6 0 -28 50 -56 100 -56
63 0 100 28 100 75 0 36 -20 56 -70 70 -77 20 -98 43 -68 73 17 17 64 15 82
-4 9 -8 26 -14 38 -12 l21 3 -24 28 c-29 34 -81 43 -126 23z"/>
<path d="M6103 3216 c-42 -19 -63 -62 -63 -132 0 -50 3 -59 34 -90 30 -30 41
-34 84 -34 35 0 57 6 76 21 52 41 21 68 -33 28 -21 -16 -36 -19 -59 -14 -36 7
-48 20 -57 58 l-7 27 96 0 c107 0 112 4 82 73 -27 65 -90 91 -153 63z m97 -46
c11 -11 20 -29 20 -40 0 -18 -7 -20 -70 -20 -79 0 -89 12 -45 55 29 30 68 32
95 5z"/>
<path d="M6410 3223 c-8 -3 -23 -12 -32 -21 -16 -14 -18 -13 -18 1 0 10 -8 17
-20 17 -19 0 -20 -7 -20 -130 0 -123 1 -130 20 -130 18 0 20 7 20 89 0 102 19
141 69 141 50 0 61 -25 61 -133 0 -90 1 -97 20 -97 19 0 20 7 20 104 0 57 -3
112 -6 121 -12 31 -75 52 -114 38z"/>
<path d="M8293 3216 c-44 -20 -60 -55 -42 -92 11 -22 28 -32 79 -48 47 -15 66
-26 68 -40 9 -43 -70 -62 -103 -26 -21 23 -55 27 -55 6 0 -28 50 -56 100 -56
63 0 100 28 100 75 0 36 -20 56 -70 70 -77 20 -98 43 -68 73 17 17 64 15 82
-4 9 -8 26 -14 38 -12 l21 3 -24 28 c-29 34 -81 43 -126 23z"/>
<path d="M3860 3214 c0 -6 47 -177 61 -222 9 -26 16 -32 32 -30 17 2 26 20 48
96 15 51 29 95 31 98 3 2 17 -41 33 -96 24 -89 30 -100 50 -100 18 0 25 8 34
43 6 23 22 82 35 130 l25 88 -22 -3 c-18 -3 -25 -18 -45 -101 -15 -61 -28 -94
-33 -86 -4 7 -18 53 -31 101 -20 76 -25 88 -44 88 -19 0 -25 -13 -50 -100 -15
-55 -31 -97 -35 -93 -4 5 -12 33 -18 63 -23 111 -31 130 -51 130 -11 0 -20 -2
-20 -6z"/>
<path d="M21343 1782 c-40 -20 -73 -39 -73 -42 0 -3 33 -22 74 -42 l75 -37 3
32 3 32 448 3 c283 1 447 6 447 12 0 6 -164 11 -447 12 l-448 3 -5 31 -5 32
-72 -36z"/>
<path d="M15212 1712 l-72 -37 75 -38 c41 -20 80 -37 85 -37 6 0 10 14 10 30
l0 30 450 0 c393 0 450 2 450 15 0 13 -57 15 -450 15 l-450 0 0 30 c0 18 -5
30 -12 30 -7 -1 -46 -18 -86 -38z"/>
</g>
</svg>
